<svg version="1.1" viewBox="0.0 0.0 600.0 371.0" fill="none" stroke="none" stroke-linecap="square" stroke-miterlimit="10" width="600" height="371" xmlns:xlink="http://www.w3.org/1999/xlink" xmlns="http://www.w3.org/2000/svg"><path fill="#ffffff" d="M0 0L600.0 0L600.0 371.0L0 371.0L0 0Z" fill-rule="nonzero"/><path stroke="#333333" stroke-width="1.0" stroke-linecap="butt" d="M66.5 332.5L581.5 332.5" fill-rule="nonzero"/><path stroke="#cccccc" stroke-width="1.0" stroke-linecap="butt" d="M66.5 255.5L581.5 255.5" fill-rule="nonzero"/><path stroke="#cccccc" stroke-width="1.0" stroke-linecap="butt" d="M66.5 179.5L581.5 179.5" fill-rule="nonzero"/><path stroke="#cccccc" stroke-width="1.0" stroke-linecap="butt" d="M66.5 102.5L581.5 102.5" fill-rule="nonzero"/><path stroke="#cccccc" stroke-width="1.0" stroke-linecap="butt" d="M66.5 25.5L581.5 25.5" fill-rule="nonzero"/><clipPath id="id_0"><path d="M66.55 25.55L581.45 25.55L581.45 332.45L66.55 332.45L66.55 25.55Z" clip-rule="nonzero"/></clipPath><path stroke="#d9d9d9" stroke-width="1.0" stroke-linecap="butt" stroke-dasharray="6.0,5.0" clip-path="url(#id_0)" d="M108.0 274.5L303.0 274.5" fill-rule="nonzero"/><path stroke="#d9d9d9" stroke-width="1.0" stroke-linecap="butt" stroke-dasharray="6.0,5.0" clip-path="url(#id_0)" d="M227.0 245.5L421.0 245.5" fill-rule="nonzero"/><path stroke="#d9d9d9" stroke-width="1.0" stroke-linecap="butt" stroke-dasharray="6.0,5.0" clip-path="url(#id_0)" d="M345.0 30.5L540.0 30.5" fill-rule="nonzero"/><path stroke="#000000" stroke-width="2.0" stroke-linecap="butt" stroke-opacity="0.0" clip-path="url(#id_0)" d="M184.0 332.0L108.0 332.0L108.0 274.0L184.0 274.0Z" fill-rule="nonzero"/><path fill="#4285f4" clip-path="url(#id_0)" d="M184.0 332.0L108.0 332.0L108.0 274.0L184.0 274.0Z" fill-rule="nonzero"/><path stroke="#000000" stroke-width="2.0" stroke-linecap="butt" stroke-opacity="0.0" clip-path="url(#id_0)" d="M303.0 274.0L227.0 274.0L227.0 245.0L303.0 245.0Z" fill-rule="nonzero"/><path fill="#4285f4" clip-path="url(#id_0)" d="M303.0 274.0L227.0 274.0L227.0 245.0L303.0 245.0Z" fill-rule="nonzero"/><path stroke="#000000" stroke-width="2.0" stroke-linecap="butt" stroke-opacity="0.0" clip-path="url(#id_0)" d="M421.0 245.0L345.0 245.0L345.0 30.0L421.0 30.0Z" fill-rule="nonzero"/><path fill="#4285f4" clip-path="url(#id_0)" d="M421.0 245.0L345.0 245.0L345.0 30.0L421.0 30.0Z" fill-rule="nonzero"/><path stroke="#000000" stroke-width="2.0" stroke-linecap="butt" stroke-opacity="0.0" clip-path="url(#id_0)" d="M540.0 332.0L464.0 332.0L464.0 30.0L540.0 30.0Z" fill-rule="nonzero"/><path fill="#bdbdbd" clip-path="url(#id_0)" d="M540.0 332.0L464.0 332.0L464.0 30.0L540.0 30.0Z" fill-rule="nonzero"/><path stroke="#4285f4" stroke-width="3.0" stroke-linejoin="round" stroke-linecap="round" d="M132.76562 290.8L131.6875 290.8L131.6875 283.58124L129.5 284.3781L129.5 283.39374L132.60938 282.22186L132.76562 282.22186L132.76562 290.8ZM140.35938 287.05Q140.03125 287.45624 139.54688 287.70624Q139.07812 287.9406 138.51562 287.9406Q137.78125 287.9406 137.23438 287.58124Q136.6875 287.22186 136.39062 286.5656Q136.09375 285.89374 136.09375 285.09686Q136.09375 284.2531 136.40625 283.5656Q136.73438 282.8781 137.32812 282.51874Q137.9375 282.14374 138.73438 282.14374Q140.0 282.14374 140.71875 283.09686Q141.45312 284.05 141.45312 285.675L141.45312 285.9875Q141.45312 288.4875 140.46875 289.6281Q139.48438 290.76874 137.5 290.8L137.28125 290.8L137.28125 289.89374L137.51562 289.89374Q138.85938 289.8625 139.57812 289.1906Q140.29688 288.51874 140.35938 287.05ZM138.6875 287.05Q139.23438 287.05 139.6875 286.72186Q140.15625 286.3781 140.375 285.89374L140.375 285.45624Q140.375 284.39374 139.90625 283.72186Q139.4375 283.05 138.73438 283.05Q138.01562 283.05 137.57812 283.59686Q137.15625 284.14374 137.15625 285.05Q137.15625 285.925 137.5625 286.4875Q137.98438 287.05 138.6875 287.05ZM148.5625 287.15936Q148.5625 289.0656 147.90625 290.0031Q147.26562 290.925 145.875 290.925Q144.51562 290.925 143.85938 290.01874Q143.20312 289.1125 143.17188 287.3L143.17188 285.8625Q143.17188 283.97186 143.8125 283.0656Q144.46875 282.14374 145.85938 282.14374Q147.23438 282.14374 147.89062 283.03436Q148.54688 283.90936 148.5625 285.7531L148.5625 287.15936ZM147.46875 285.675Q147.46875 284.3 147.07812 283.675Q146.70312 283.03436 145.85938 283.03436Q145.03125 283.03436 144.64062 283.675Q144.26562 284.3 144.26562 285.59686L144.26562 287.33124Q144.26562 288.70624 144.65625 289.3781Q145.0625 290.03436 145.875 290.03436Q146.67188 290.03436 147.0625 289.40936Q147.45312 288.78436 147.46875 287.45624L147.46875 285.675ZM155.5625 287.15936Q155.5625 289.0656 154.90625 290.0031Q154.26562 290.925 152.875 290.925Q151.51562 290.925 150.85938 290.01874Q150.20312 289.1125 150.17188 287.3L150.17188 285.8625Q150.17188 283.97186 150.8125 283.0656Q151.46875 282.14374 152.85938 282.14374Q154.23438 282.14374 154.89062 283.03436Q155.54688 283.90936 155.5625 285.7531L155.5625 287.15936ZM154.46875 285.675Q154.46875 284.3 154.07812 283.675Q153.70312 283.03436 152.85938 283.03436Q152.03125 283.03436 151.64062 283.675Q151.26562 284.3 151.26562 285.59686L151.26562 287.33124Q151.26562 288.70624 151.65625 289.3781Q152.0625 290.03436 152.875 290.03436Q153.67188 290.03436 154.0625 289.40936Q154.45312 288.78436 154.46875 287.45624L154.46875 285.675ZM162.5625 287.15936Q162.5625 289.0656 161.90625 290.0031Q161.26562 290.925 159.875 290.925Q158.51562 290.925 157.85938 290.01874Q157.20312 289.1125 157.17188 287.3L157.17188 285.8625Q157.17188 283.97186 157.8125 283.0656Q158.46875 282.14374 159.85938 282.14374Q161.23438 282.14374 161.89062 283.03436Q162.54688 283.90936 162.5625 285.7531L162.5625 287.15936ZM161.46875 285.675Q161.46875 284.3 161.07812 283.675Q160.70312 283.03436 159.85938 283.03436Q159.03125 283.03436 158.64062 283.675Q158.26562 284.3 158.26562 285.59686L158.26562 287.33124Q158.26562 288.70624 158.65625 289.3781Q159.0625 290.03436 159.875 290.03436Q160.67188 290.03436 161.0625 289.40936Q161.45312 288.78436 161.46875 287.45624L161.46875 285.675Z" fill-rule="nonzero"/><path fill="#ffffff" d="M132.76562 290.8L131.6875 290.8L131.6875 283.58124L129.5 284.3781L129.5 283.39374L132.60938 282.22186L132.76562 282.22186L132.76562 290.8ZM140.35938 287.05Q140.03125 287.45624 139.54688 287.70624Q139.07812 287.9406 138.51562 287.9406Q137.78125 287.9406 137.23438 287.58124Q136.6875 287.22186 136.39062 286.5656Q136.09375 285.89374 136.09375 285.09686Q136.09375 284.2531 136.40625 283.5656Q136.73438 282.8781 137.32812 282.51874Q137.9375 282.14374 138.73438 282.14374Q140.0 282.14374 140.71875 283.09686Q141.45312 284.05 141.45312 285.675L141.45312 285.9875Q141.45312 288.4875 140.46875 289.6281Q139.48438 290.76874 137.5 290.8L137.28125 290.8L137.28125 289.89374L137.51562 289.89374Q138.85938 289.8625 139.57812 289.1906Q140.29688 288.51874 140.35938 287.05ZM138.6875 287.05Q139.23438 287.05 139.6875 286.72186Q140.15625 286.3781 140.375 285.89374L140.375 285.45624Q140.375 284.39374 139.90625 283.72186Q139.4375 283.05 138.73438 283.05Q138.01562 283.05 137.57812 283.59686Q137.15625 284.14374 137.15625 285.05Q137.15625 285.925 137.5625 286.4875Q137.98438 287.05 138.6875 287.05ZM148.5625 287.15936Q148.5625 289.0656 147.90625 290.0031Q147.26562 290.925 145.875 290.925Q144.51562 290.925 143.85938 290.01874Q143.20312 289.1125 143.17188 287.3L143.17188 285.8625Q143.17188 283.97186 143.8125 283.0656Q144.46875 282.14374 145.85938 282.14374Q147.23438 282.14374 147.89062 283.03436Q148.54688 283.90936 148.5625 285.7531L148.5625 287.15936ZM147.46875 285.675Q147.46875 284.3 147.07812 283.675Q146.70312 283.03436 145.85938 283.03436Q145.03125 283.03436 144.64062 283.675Q144.26562 284.3 144.26562 285.59686L144.26562 287.33124Q144.26562 288.70624 144.65625 289.3781Q145.0625 290.03436 145.875 290.03436Q146.67188 290.03436 147.0625 289.40936Q147.45312 288.78436 147.46875 287.45624L147.46875 285.675ZM155.5625 287.15936Q155.5625 289.0656 154.90625 290.0031Q154.26562 290.925 152.875 290.925Q151.51562 290.925 150.85938 290.01874Q150.20312 289.1125 150.17188 287.3L150.17188 285.8625Q150.17188 283.97186 150.8125 283.0656Q151.46875 282.14374 152.85938 282.14374Q154.23438 282.14374 154.89062 283.03436Q155.54688 283.90936 155.5625 285.7531L155.5625 287.15936ZM154.46875 285.675Q154.46875 284.3 154.07812 283.675Q153.70312 283.03436 152.85938 283.03436Q152.03125 283.03436 151.64062 283.675Q151.26562 284.3 151.26562 285.59686L151.26562 287.33124Q151.26562 288.70624 151.65625 289.3781Q152.0625 290.03436 152.875 290.03436Q153.67188 290.03436 154.0625 289.40936Q154.45312 288.78436 154.46875 287.45624L154.46875 285.675ZM162.5625 287.15936Q162.5625 289.0656 161.90625 290.0031Q161.26562 290.925 159.875 290.925Q158.51562 290.925 157.85938 290.01874Q157.20312 289.1125 157.17188 287.3L157.17188 285.8625Q157.17188 283.97186 157.8125 283.0656Q158.46875 282.14374 159.85938 282.14374Q161.23438 282.14374 161.89062 283.03436Q162.54688 283.90936 162.5625 285.7531L162.5625 287.15936ZM161.46875 285.675Q161.46875 284.3 161.07812 283.675Q160.70312 283.03436 159.85938 283.03436Q159.03125 283.03436 158.64062 283.675Q158.26562 284.3 158.26562 285.59686L158.26562 287.33124Q158.26562 288.70624 158.65625 289.3781Q159.0625 290.03436 159.875 290.03436Q160.67188 290.03436 161.0625 289.40936Q161.45312 288.78436 161.46875 287.45624L161.46875 285.675Z" fill-rule="nonzero"/><path stroke="#4285f4" stroke-width="3.0" stroke-linejoin="round" stroke-linecap="round" d="M255.85938 258.05Q255.53125 258.45624 255.04688 258.70624Q254.57812 258.9406 254.01562 258.9406Q253.28125 258.9406 252.73438 258.58124Q252.1875 258.22186 251.89062 257.5656Q251.59375 256.89374 251.59375 256.09686Q251.59375 255.25313 251.90625 254.56563Q252.23438 253.87813 252.82812 253.51875Q253.4375 253.14375 254.23438 253.14375Q255.5 253.14375 256.21875 254.09688Q256.95312 255.05 256.95312 256.675L256.95312 256.9875Q256.95312 259.4875 255.96875 260.6281Q254.98438 261.76874 253.0 261.8L252.78125 261.8L252.78125 260.89374L253.01562 260.89374Q254.35938 260.8625 255.07812 260.1906Q255.79688 259.51874 255.85938 258.05ZM254.1875 258.05Q254.73438 258.05 255.1875 257.72186Q255.65625 257.3781 255.875 256.89374L255.875 256.45624Q255.875 255.39375 255.40625 254.72188Q254.9375 254.05 254.23438 254.05Q253.51562 254.05 253.07812 254.59688Q252.65625 255.14375 252.65625 256.05Q252.65625 256.925 253.0625 257.4875Q253.48438 258.05 254.1875 258.05ZM259.20312 257.51874L259.64062 253.26875L264.01562 253.26875L264.01562 254.26875L260.5625 254.26875L260.29688 256.59686Q260.9375 256.22186 261.73438 256.22186Q262.89062 256.22186 263.57812 257.0031Q264.26562 257.76874 264.26562 259.08124Q264.26562 260.39374 263.54688 261.15936Q262.84375 261.925 261.5625 261.925Q260.4375 261.925 259.71875 261.3Q259.0 260.65936 258.90625 259.55L259.92188 259.55Q260.03125 260.28436 260.45312 260.65936Q260.875 261.03436 261.5625 261.03436Q262.3125 261.03436 262.75 260.51874Q263.1875 260.0031 263.1875 259.09686Q263.1875 258.2375 262.71875 257.72186Q262.25 257.20624 261.46875 257.20624Q260.76562 257.20624 260.35938 257.5031L260.07812 257.7375L259.20312 257.51874ZM271.0625 258.15936Q271.0625 260.0656 270.40625 261.0031Q269.76562 261.925 268.375 261.925Q267.01562 261.925 266.35938 261.01874Q265.70312 260.1125 265.67188 258.3L265.67188 256.8625Q265.67188 254.97188 266.3125 254.06563Q266.96875 253.14375 268.35938 253.14375Q269.73438 253.14375 270.39062 254.03438Q271.04688 254.90938 271.0625 256.7531L271.0625 258.15936ZM269.96875 256.675Q269.96875 255.3 269.57812 254.675Q269.20312 254.03438 268.35938 254.03438Q267.53125 254.03438 267.14062 254.675Q266.76562 255.3 266.76562 256.59686L266.76562 258.33124Q266.76562 259.70624 267.15625 260.3781Q267.5625 261.03436 268.375 261.03436Q269.17188 261.03436 269.5625 260.40936Q269.95312 259.78436 269.96875 258.45624L269.96875 256.675ZM278.0625 258.15936Q278.0625 260.0656 277.40625 261.0031Q276.76562 261.925 275.375 261.925Q274.01562 261.925 273.35938 261.01874Q272.70312 260.1125 272.67188 258.3L272.67188 256.8625Q272.67188 254.97188 273.3125 254.06563Q273.96875 253.14375 275.35938 253.14375Q276.73438 253.14375 277.39062 254.03438Q278.04688 254.90938 278.0625 256.7531L278.0625 258.15936ZM276.96875 256.675Q276.96875 255.3 276.57812 254.675Q276.20312 254.03438 275.35938 254.03438Q274.53125 254.03438 274.14062 254.675Q273.76562 255.3 273.76562 256.59686L273.76562 258.33124Q273.76562 259.70624 274.15625 260.3781Q274.5625 261.03436 275.375 261.03436Q276.17188 261.03436 276.5625 260.40936Q276.95312 259.78436 276.96875 258.45624L276.96875 256.675Z" fill-rule="nonzero"/><path fill="#ffffff" d="M255.85938 258.05Q255.53125 258.45624 255.04688 258.70624Q254.57812 258.9406 254.01562 258.9406Q253.28125 258.9406 252.73438 258.58124Q252.1875 258.22186 251.89062 257.5656Q251.59375 256.89374 251.59375 256.09686Q251.59375 255.25311 251.90625 254.56561Q252.23438 253.87811 252.82812 253.51874Q253.4375 253.14374 254.23438 253.14374Q255.5 253.14374 256.21875 254.09686Q256.95312 255.04999 256.95312 256.675L256.95312 256.9875Q256.95312 259.4875 255.96875 260.6281Q254.98438 261.76874 253.0 261.8L252.78125 261.8L252.78125 260.89374L253.01562 260.89374Q254.35938 260.8625 255.07812 260.1906Q255.79688 259.51874 255.85938 258.05ZM254.1875 258.05Q254.73438 258.05 255.1875 257.72186Q255.65625 257.3781 255.875 256.89374L255.875 256.45624Q255.875 255.39374 255.40625 254.72186Q254.9375 254.04999 254.23438 254.04999Q253.51562 254.04999 253.07812 254.59686Q252.65625 255.14374 252.65625 256.05Q252.65625 256.925 253.0625 257.4875Q253.48438 258.05 254.1875 258.05ZM259.20312 257.51874L259.64062 253.26874L264.01562 253.26874L264.01562 254.26874L260.5625 254.26874L260.29688 256.59686Q260.9375 256.22186 261.73438 256.22186Q262.89062 256.22186 263.57812 257.0031Q264.26562 257.76874 264.26562 259.08124Q264.26562 260.39374 263.54688 261.15936Q262.84375 261.925 261.5625 261.925Q260.4375 261.925 259.71875 261.3Q259.0 260.65936 258.90625 259.55L259.92188 259.55Q260.03125 260.28436 260.45312 260.65936Q260.875 261.03436 261.5625 261.03436Q262.3125 261.03436 262.75 260.51874Q263.1875 260.0031 263.1875 259.09686Q263.1875 258.2375 262.71875 257.72186Q262.25 257.20624 261.46875 257.20624Q260.76562 257.20624 260.35938 257.5031L260.07812 257.7375L259.20312 257.51874ZM271.0625 258.15936Q271.0625 260.0656 270.40625 261.0031Q269.76562 261.925 268.375 261.925Q267.01562 261.925 266.35938 261.01874Q265.70312 260.1125 265.67188 258.3L265.67188 256.8625Q265.67188 254.97186 266.3125 254.06561Q266.96875 253.14374 268.35938 253.14374Q269.73438 253.14374 270.39062 254.03436Q271.04688 254.90936 271.0625 256.7531L271.0625 258.15936ZM269.96875 256.675Q269.96875 255.29999 269.57812 254.67499Q269.20312 254.03436 268.35938 254.03436Q267.53125 254.03436 267.14062 254.67499Q266.76562 255.29999 266.76562 256.59686L266.76562 258.33124Q266.76562 259.70624 267.15625 260.3781Q267.5625 261.03436 268.375 261.03436Q269.17188 261.03436 269.5625 260.40936Q269.95312 259.78436 269.96875 258.45624L269.96875 256.675ZM278.0625 258.15936Q278.0625 260.0656 277.40625 261.0031Q276.76562 261.925 275.375 261.925Q274.01562 261.925 273.35938 261.01874Q272.70312 260.1125 272.67188 258.3L272.67188 256.8625Q272.67188 254.97186 273.3125 254.06561Q273.96875 253.14374 275.35938 253.14374Q276.73438 253.14374 277.39062 254.03436Q278.04688 254.90936 278.0625 256.7531L278.0625 258.15936ZM276.96875 256.675Q276.96875 255.29999 276.57812 254.67499Q276.20312 254.03436 275.35938 254.03436Q274.53125 254.03436 274.14062 254.67499Q273.76562 255.29999 273.76562 256.59686L273.76562 258.33124Q273.76562 259.70624 274.15625 260.3781Q274.5625 261.03436 275.375 261.03436Q276.17188 261.03436 276.5625 260.40936Q276.95312 259.78436 276.96875 258.45624L276.96875 256.675Z" fill-rule="nonzero"/><path stroke="#4285f4" stroke-width="3.0" stroke-linejoin="round" stroke-linecap="round" d="M371.71875 38.878124L368.1875 46.8L367.04688 46.8L370.5625 39.159374L365.95312 39.159374L365.95312 38.26875L371.71875 38.26875L371.71875 38.878124ZM378.5625 43.159374Q378.5625 45.065624 377.90625 46.003124Q377.26562 46.925 375.875 46.925Q374.51562 46.925 373.85938 46.01875Q373.20312 45.1125 373.17188 43.3L373.17188 41.8625Q373.17188 39.971874 373.8125 39.065624Q374.46875 38.14375 375.85938 38.14375Q377.23438 38.14375 377.89062 39.034374Q378.54688 39.909374 378.5625 41.753124L378.5625 43.159374ZM377.46875 41.675Q377.46875 40.3 377.07812 39.675Q376.70312 39.034374 375.85938 39.034374Q375.03125 39.034374 374.64062 39.675Q374.26562 40.3 374.26562 41.596874L374.26562 43.33125Q374.26562 44.70625 374.65625 45.378124Q375.0625 46.034374 375.875 46.034374Q376.67188 46.034374 377.0625 45.409374Q377.45312 44.784374 377.46875 43.45625L377.46875 41.675ZM385.5625 43.159374Q385.5625 45.065624 384.90625 46.003124Q384.26562 46.925 382.875 46.925Q381.51562 46.925 380.85938 46.01875Q380.20312 45.1125 380.17188 43.3L380.17188 41.8625Q380.17188 39.971874 380.8125 39.065624Q381.46875 38.14375 382.85938 38.14375Q384.23438 38.14375 384.89062 39.034374Q385.54688 39.909374 385.5625 41.753124L385.5625 43.159374ZM384.46875 41.675Q384.46875 40.3 384.07812 39.675Q383.70312 39.034374 382.85938 39.034374Q382.03125 39.034374 381.64062 39.675Q381.26562 40.3 381.26562 41.596874L381.26562 43.33125Q381.26562 44.70625 381.65625 45.378124Q382.0625 46.034374 382.875 46.034374Q383.67188 46.034374 384.0625 45.409374Q384.45312 44.784374 384.46875 43.45625L384.46875 41.675ZM392.5625 43.159374Q392.5625 45.065624 391.90625 46.003124Q391.26562 46.925 389.875 46.925Q388.51562 46.925 387.85938 46.01875Q387.20312 45.1125 387.17188 43.3L387.17188 41.8625Q387.17188 39.971874 387.8125 39.065624Q388.46875 38.14375 389.85938 38.14375Q391.23438 38.14375 391.89062 39.034374Q392.54688 39.909374 392.5625 41.753124L392.5625 43.159374ZM391.46875 41.675Q391.46875 40.3 391.07812 39.675Q390.70312 39.034374 389.85938 39.034374Q389.03125 39.034374 388.64062 39.675Q388.26562 40.3 388.26562 41.596874L388.26562 43.33125Q388.26562 44.70625 388.65625 45.378124Q389.0625 46.034374 389.875 46.034374Q390.67188 46.034374 391.0625 45.409374Q391.45312 44.784374 391.46875 43.45625L391.46875 41.675ZM399.5625 43.159374Q399.5625 45.065624 398.90625 46.003124Q398.26562 46.925 396.875 46.925Q395.51562 46.925 394.85938 46.01875Q394.20312 45.1125 394.17188 43.3L394.17188 41.8625Q394.17188 39.971874 394.8125 39.065624Q395.46875 38.14375 396.85938 38.14375Q398.23438 38.14375 398.89062 39.034374Q399.54688 39.909374 399.5625 41.753124L399.5625 43.159374ZM398.46875 41.675Q398.46875 40.3 398.07812 39.675Q397.70312 39.034374 396.85938 39.034374Q396.03125 39.034374 395.64062 39.675Q395.26562 40.3 395.26562 41.596874L395.26562 43.33125Q395.26562 44.70625 395.65625 45.378124Q396.0625 46.034374 396.875 46.034374Q397.67188 46.034374 398.0625 45.409374Q398.45312 44.784374 398.46875 43.45625L398.46875 41.675Z" fill-rule="nonzero"/><path fill="#ffffff" d="M371.71875 38.878124L368.1875 46.8L367.04688 46.8L370.5625 39.159374L365.95312 39.159374L365.95312 38.26875L371.71875 38.26875L371.71875 38.878124ZM378.5625 43.159374Q378.5625 45.065624 377.90625 46.003124Q377.26562 46.925 375.875 46.925Q374.51562 46.925 373.85938 46.01875Q373.20312 45.1125 373.17188 43.3L373.17188 41.8625Q373.17188 39.971874 373.8125 39.065624Q374.46875 38.14375 375.85938 38.14375Q377.23438 38.14375 377.89062 39.034374Q378.54688 39.909374 378.5625 41.753124L378.5625 43.159374ZM377.46875 41.675Q377.46875 40.3 377.07812 39.675Q376.70312 39.034374 375.85938 39.034374Q375.03125 39.034374 374.64062 39.675Q374.26562 40.3 374.26562 41.596874L374.26562 43.33125Q374.26562 44.70625 374.65625 45.378124Q375.0625 46.034374 375.875 46.034374Q376.67188 46.034374 377.0625 45.409374Q377.45312 44.784374 377.46875 43.45625L377.46875 41.675ZM385.5625 43.159374Q385.5625 45.065624 384.90625 46.003124Q384.26562 46.925 382.875 46.925Q381.51562 46.925 380.85938 46.01875Q380.20312 45.1125 380.17188 43.3L380.17188 41.8625Q380.17188 39.971874 380.8125 39.065624Q381.46875 38.14375 382.85938 38.14375Q384.23438 38.14375 384.89062 39.034374Q385.54688 39.909374 385.5625 41.753124L385.5625 43.159374ZM384.46875 41.675Q384.46875 40.3 384.07812 39.675Q383.70312 39.034374 382.85938 39.034374Q382.03125 39.034374 381.64062 39.675Q381.26562 40.3 381.26562 41.596874L381.26562 43.33125Q381.26562 44.70625 381.65625 45.378124Q382.0625 46.034374 382.875 46.034374Q383.67188 46.034374 384.0625 45.409374Q384.45312 44.784374 384.46875 43.45625L384.46875 41.675ZM392.5625 43.159374Q392.5625 45.065624 391.90625 46.003124Q391.26562 46.925 389.875 46.925Q388.51562 46.925 387.85938 46.01875Q387.20312 45.1125 387.17188 43.3L387.17188 41.8625Q387.17188 39.971874 387.8125 39.065624Q388.46875 38.14375 389.85938 38.14375Q391.23438 38.14375 391.89062 39.034374Q392.54688 39.909374 392.5625 41.753124L392.5625 43.159374ZM391.46875 41.675Q391.46875 40.3 391.07812 39.675Q390.70312 39.034374 389.85938 39.034374Q389.03125 39.034374 388.64062 39.675Q388.26562 40.3 388.26562 41.596874L388.26562 43.33125Q388.26562 44.70625 388.65625 45.378124Q389.0625 46.034374 389.875 46.034374Q390.67188 46.034374 391.0625 45.409374Q391.45312 44.784374 391.46875 43.45625L391.46875 41.675ZM399.5625 43.159374Q399.5625 45.065624 398.90625 46.003124Q398.26562 46.925 396.875 46.925Q395.51562 46.925 394.85938 46.01875Q394.20312 45.1125 394.17188 43.3L394.17188 41.8625Q394.17188 39.971874 394.8125 39.065624Q395.46875 38.14375 396.85938 38.14375Q398.23438 38.14375 398.89062 39.034374Q399.54688 39.909374 399.5625 41.753124L399.5625 43.159374ZM398.46875 41.675Q398.46875 40.3 398.07812 39.675Q397.70312 39.034374 396.85938 39.034374Q396.03125 39.034374 395.64062 39.675Q395.26562 40.3 395.26562 41.596874L395.26562 43.33125Q395.26562 44.70625 395.65625 45.378124Q396.0625 46.034374 396.875 46.034374Q397.67188 46.034374 398.0625 45.409374Q398.45312 44.784374 398.46875 43.45625L398.46875 41.675Z" fill-rule="nonzero"/><path stroke="#bdbdbd" stroke-width="3.0" stroke-linejoin="round" stroke-linecap="round" d="M489.35938 43.05Q489.03125 43.45625 488.54688 43.70625Q488.07812 43.940624 487.51562 43.940624Q486.78125 43.940624 486.23438 43.58125Q485.6875 43.221874 485.39062 42.565624Q485.09375 41.89375 485.09375 41.096874Q485.09375 40.253124 485.40625 39.565624Q485.73438 38.878124 486.32812 38.51875Q486.9375 38.14375 487.73438 38.14375Q489.0 38.14375 489.71875 39.096874Q490.45312 40.05 490.45312 41.675L490.45312 41.9875Q490.45312 44.4875 489.46875 45.628124Q488.48438 46.76875 486.5 46.8L486.28125 46.8L486.28125 45.89375L486.51562 45.89375Q487.85938 45.8625 488.57812 45.190624Q489.29688 44.51875 489.35938 43.05ZM487.6875 43.05Q488.23438 43.05 488.6875 42.721874Q489.15625 42.378124 489.375 41.89375L489.375 41.45625Q489.375 40.39375 488.90625 39.721874Q488.4375 39.05 487.73438 39.05Q487.01562 39.05 486.57812 39.596874Q486.15625 40.14375 486.15625 41.05Q486.15625 41.925 486.5625 42.4875Q486.98438 43.05 487.6875 43.05ZM497.39062 40.4875Q497.39062 41.128124 497.04688 41.628124Q496.70312 42.128124 496.14062 42.409374Q496.79688 42.690624 497.1875 43.253124Q497.57812 43.8 497.57812 44.503124Q497.57812 45.596874 496.82812 46.26875Q496.09375 46.925 494.875 46.925Q493.64062 46.925 492.89062 46.26875Q492.15625 45.596874 492.15625 44.503124Q492.15625 43.8 492.53125 43.253124Q492.90625 42.690624 493.57812 42.409374Q493.01562 42.128124 492.6875 41.628124Q492.35938 41.128124 492.35938 40.4875Q492.35938 39.409374 493.04688 38.784374Q493.73438 38.14375 494.875 38.14375Q496.0 38.14375 496.6875 38.784374Q497.39062 39.409374 497.39062 40.4875ZM496.5 44.471874Q496.5 43.753124 496.04688 43.315624Q495.59375 42.8625 494.85938 42.8625Q494.125 42.8625 493.67188 43.315624Q493.23438 43.753124 493.23438 44.4875Q493.23438 45.20625 493.67188 45.628124Q494.10938 46.034374 494.875 46.034374Q495.625 46.034374 496.0625 45.6125Q496.5 45.190624 496.5 44.471874ZM494.875 39.034374Q494.23438 39.034374 493.82812 39.440624Q493.4375 39.83125 493.4375 40.51875Q493.4375 41.159374 493.82812 41.565624Q494.21875 41.971874 494.85938 41.971874Q495.51562 41.971874 495.90625 41.565624Q496.29688 41.159374 496.29688 40.51875Q496.29688 39.8625 495.89062 39.45625Q495.48438 39.034374 494.875 39.034374ZM499.70312 42.51875L500.14062 38.26875L504.51562 38.26875L504.51562 39.26875L501.0625 39.26875L500.79688 41.596874Q501.4375 41.221874 502.23438 41.221874Q503.39062 41.221874 504.07812 42.003124Q504.76562 42.76875 504.76562 44.08125Q504.76562 45.39375 504.04688 46.159374Q503.34375 46.925 502.0625 46.925Q500.9375 46.925 500.21875 46.3Q499.5 45.659374 499.40625 44.55L500.42188 44.55Q500.53125 45.284374 500.95312 45.659374Q501.375 46.034374 502.0625 46.034374Q502.8125 46.034374 503.25 45.51875Q503.6875 45.003124 503.6875 44.096874Q503.6875 43.2375 503.21875 42.721874Q502.75 42.20625 501.96875 42.20625Q501.26562 42.20625 500.85938 42.503124L500.57812 42.7375L499.70312 42.51875ZM511.5625 43.159374Q511.5625 45.065624 510.90625 46.003124Q510.26562 46.925 508.875 46.925Q507.51562 46.925 506.85938 46.01875Q506.20312 45.1125 506.17188 43.3L506.17188 41.8625Q506.17188 39.971874 506.8125 39.065624Q507.46875 38.14375 508.85938 38.14375Q510.23438 38.14375 510.89062 39.034374Q511.54688 39.909374 511.5625 41.753124L511.5625 43.159374ZM510.46875 41.675Q510.46875 40.3 510.07812 39.675Q509.70312 39.034374 508.85938 39.034374Q508.03125 39.034374 507.64062 39.675Q507.26562 40.3 507.26562 41.596874L507.26562 43.33125Q507.26562 44.70625 507.65625 45.378124Q508.0625 46.034374 508.875 46.034374Q509.67188 46.034374 510.0625 45.409374Q510.45312 44.784374 510.46875 43.45625L510.46875 41.675ZM518.5625 43.159374Q518.5625 45.065624 517.90625 46.003124Q517.2656 46.925 515.875 46.925Q514.5156 46.925 513.8594 46.01875Q513.2031 45.1125 513.1719 43.3L513.1719 41.8625Q513.1719 39.971874 513.8125 39.065624Q514.46875 38.14375 515.8594 38.14375Q517.2344 38.14375 517.8906 39.034374Q518.5469 39.909374 518.5625 41.753124L518.5625 43.159374ZM517.46875 41.675Q517.46875 40.3 517.0781 39.675Q516.7031 39.034374 515.8594 39.034374Q515.03125 39.034374 514.6406 39.675Q514.2656 40.3 514.2656 41.596874L514.2656 43.33125Q514.2656 44.70625 514.65625 45.378124Q515.0625 46.034374 515.875 46.034374Q516.6719 46.034374 517.0625 45.409374Q517.4531 44.784374 517.46875 43.45625L517.46875 41.675Z" fill-rule="nonzero"/><path fill="#000000" d="M489.35938 43.05Q489.03125 43.45625 488.54688 43.70625Q488.07812 43.940624 487.51562 43.940624Q486.78125 43.940624 486.23438 43.58125Q485.6875 43.221874 485.39062 42.565624Q485.09375 41.89375 485.09375 41.096874Q485.09375 40.253124 485.40625 39.565624Q485.73438 38.878124 486.32812 38.51875Q486.9375 38.14375 487.73438 38.14375Q489.0 38.14375 489.71875 39.096874Q490.45312 40.05 490.45312 41.675L490.45312 41.9875Q490.45312 44.4875 489.46875 45.628124Q488.48438 46.76875 486.5 46.8L486.28125 46.8L486.28125 45.89375L486.51562 45.89375Q487.85938 45.8625 488.57812 45.190624Q489.29688 44.51875 489.35938 43.05ZM487.6875 43.05Q488.23438 43.05 488.6875 42.721874Q489.15625 42.378124 489.375 41.89375L489.375 41.45625Q489.375 40.39375 488.90625 39.721874Q488.4375 39.05 487.73438 39.05Q487.01562 39.05 486.57812 39.596874Q486.15625 40.14375 486.15625 41.05Q486.15625 41.925 486.5625 42.4875Q486.98438 43.05 487.6875 43.05ZM497.39062 40.4875Q497.39062 41.128124 497.04688 41.628124Q496.70312 42.128124 496.14062 42.409374Q496.79688 42.690624 497.1875 43.253124Q497.57812 43.8 497.57812 44.503124Q497.57812 45.596874 496.82812 46.26875Q496.09375 46.925 494.875 46.925Q493.64062 46.925 492.89062 46.26875Q492.15625 45.596874 492.15625 44.503124Q492.15625 43.8 492.53125 43.253124Q492.90625 42.690624 493.57812 42.409374Q493.01562 42.128124 492.6875 41.628124Q492.35938 41.128124 492.35938 40.4875Q492.35938 39.409374 493.04688 38.784374Q493.73438 38.14375 494.875 38.14375Q496.0 38.14375 496.6875 38.784374Q497.39062 39.409374 497.39062 40.4875ZM496.5 44.471874Q496.5 43.753124 496.04688 43.315624Q495.59375 42.8625 494.85938 42.8625Q494.125 42.8625 493.67188 43.315624Q493.23438 43.753124 493.23438 44.4875Q493.23438 45.20625 493.67188 45.628124Q494.10938 46.034374 494.875 46.034374Q495.625 46.034374 496.0625 45.6125Q496.5 45.190624 496.5 44.471874ZM494.875 39.034374Q494.23438 39.034374 493.82812 39.440624Q493.4375 39.83125 493.4375 40.51875Q493.4375 41.159374 493.82812 41.565624Q494.21875 41.971874 494.85938 41.971874Q495.51562 41.971874 495.90625 41.565624Q496.29688 41.159374 496.29688 40.51875Q496.29688 39.8625 495.89062 39.45625Q495.48438 39.034374 494.875 39.034374ZM499.70312 42.51875L500.14062 38.26875L504.51562 38.26875L504.51562 39.26875L501.0625 39.26875L500.79688 41.596874Q501.4375 41.221874 502.23438 41.221874Q503.39062 41.221874 504.07812 42.003124Q504.76562 42.76875 504.76562 44.08125Q504.76562 45.39375 504.04688 46.159374Q503.34375 46.925 502.0625 46.925Q500.9375 46.925 500.21875 46.3Q499.5 45.659374 499.40625 44.55L500.42188 44.55Q500.53125 45.284374 500.95312 45.659374Q501.375 46.034374 502.0625 46.034374Q502.8125 46.034374 503.25 45.51875Q503.6875 45.003124 503.6875 44.096874Q503.6875 43.2375 503.21875 42.721874Q502.75 42.20625 501.96875 42.20625Q501.26562 42.20625 500.85938 42.503124L500.57812 42.7375L499.70312 42.51875ZM511.5625 43.159374Q511.5625 45.065624 510.90625 46.003124Q510.26562 46.925 508.875 46.925Q507.51562 46.925 506.85938 46.01875Q506.20312 45.1125 506.17188 43.3L506.17188 41.8625Q506.17188 39.971874 506.8125 39.065624Q507.46875 38.14375 508.85938 38.14375Q510.23438 38.14375 510.89062 39.034374Q511.54688 39.909374 511.5625 41.753124L511.5625 43.159374ZM510.46875 41.675Q510.46875 40.3 510.07812 39.675Q509.70312 39.034374 508.85938 39.034374Q508.03125 39.034374 507.64062 39.675Q507.26562 40.3 507.26562 41.596874L507.26562 43.33125Q507.26562 44.70625 507.65625 45.378124Q508.0625 46.034374 508.875 46.034374Q509.67188 46.034374 510.0625 45.409374Q510.45312 44.784374 510.46875 43.45625L510.46875 41.675ZM518.5625 43.159374Q518.5625 45.065624 517.90625 46.003124Q517.2656 46.925 515.875 46.925Q514.5156 46.925 513.8594 46.01875Q513.2031 45.1125 513.1719 43.3L513.1719 41.8625Q513.1719 39.971874 513.8125 39.065624Q514.46875 38.14375 515.8594 38.14375Q517.2344 38.14375 517.8906 39.034374Q518.5469 39.909374 518.5625 41.753124L518.5625 43.159374ZM517.46875 41.675Q517.46875 40.3 517.0781 39.675Q516.7031 39.034374 515.8594 39.034374Q515.03125 39.034374 514.6406 39.675Q514.2656 40.3 514.2656 41.596874L514.2656 43.33125Q514.2656 44.70625 514.65625 45.378124Q515.0625 46.034374 515.875 46.034374Q516.6719 46.034374 517.0625 45.409374Q517.4531 44.784374 517.46875 43.45625L517.46875 41.675Z" fill-rule="nonzero"/><path fill="#000000" d="M54.05 332.21564Q54.05 330.6844 54.3625 329.7625Q54.675 328.825 55.284374 328.325Q55.909374 327.825 56.846874 327.825Q57.534374 327.825 58.05 328.10626Q58.58125 328.3875 58.925 328.91876Q59.26875 329.4344 59.45625 330.1844Q59.64375 330.9344 59.64375 332.21564Q59.64375 333.73126 59.33125 334.65314Q59.034374 335.575 58.409374 336.09064Q57.8 336.59064 56.846874 336.59064Q55.6125 336.59064 54.89375 335.7Q54.05 334.6375 54.05 332.21564ZM55.128124 332.21564Q55.128124 334.325 55.628124 335.02814Q56.128124 335.73126 56.846874 335.73126Q57.58125 335.73126 58.065624 335.02814Q58.565624 334.325 58.565624 332.21564Q58.565624 330.09064 58.065624 329.40314Q57.58125 328.7 56.83125 328.7Q56.1125 328.7 55.675 329.3094Q55.128124 330.09064 55.128124 332.21564Z" fill-rule="nonzero"/><path fill="#000000" d="M31.596874 258.70938L31.596874 259.725L25.909374 259.725Q25.909374 259.35 26.034374 258.99063Q26.253124 258.4125 26.721874 257.85Q27.20625 257.2875 28.1125 256.55313Q29.51875 255.39688 30.003124 254.725Q30.503124 254.05313 30.503124 253.45938Q30.503124 252.83438 30.05 252.4125Q29.596874 251.975 28.878124 251.975Q28.1125 251.975 27.659374 252.42813Q27.20625 252.88126 27.190624 253.69376L26.1125 253.58438Q26.221874 252.36563 26.940624 251.74063Q27.675 251.1 28.909374 251.1Q30.14375 251.1 30.8625 251.7875Q31.58125 252.475 31.58125 253.49063Q31.58125 254.00626 31.3625 254.50626Q31.159374 254.99063 30.659374 255.55313Q30.175 256.1 29.05 257.05313Q28.096874 257.85 27.815624 258.14688Q27.55 258.42813 27.378124 258.70938L31.596874 258.70938ZM33.05 257.475L34.159374 257.38126Q34.284374 258.19376 34.721874 258.6Q35.175 259.00626 35.815624 259.00626Q36.565624 259.00626 37.096874 258.42813Q37.628124 257.85 37.628124 256.9125Q37.628124 256.00626 37.1125 255.49063Q36.6125 254.95938 35.784374 254.95938Q35.284374 254.95938 34.8625 255.19376Q34.45625 255.42813 34.221874 255.7875L33.2375 255.6625L34.065624 251.25626L38.346874 251.25626L38.346874 252.25626L34.909374 252.25626L34.45625 254.56876Q35.221874 254.02188 36.065624 254.02188Q37.190624 254.02188 37.95625 254.80313Q38.7375 255.58438 38.7375 256.81876Q38.7375 257.975 38.065624 258.83438Q37.2375 259.86563 35.815624 259.86563Q34.64375 259.86563 33.89375 259.20938Q33.159374 258.55313 33.05 257.475ZM40.05 255.49063Q40.05 253.95938 40.3625 253.0375Q40.675 252.1 41.284374 251.6Q41.909374 251.1 42.846874 251.1Q43.534374 251.1 44.05 251.38126Q44.58125 251.6625 44.925 252.19376Q45.26875 252.70938 45.45625 253.45938Q45.64375 254.20938 45.64375 255.49063Q45.64375 257.00626 45.33125 257.92813Q45.034374 258.85 44.409374 259.36563Q43.8 259.86563 42.846874 259.86563Q41.6125 259.86563 40.89375 258.975Q40.05 257.9125 40.05 255.49063ZM41.128124 255.49063Q41.128124 257.6 41.628124 258.30313Q42.128124 259.00626 42.846874 259.00626Q43.58125 259.00626 44.065624 258.30313Q44.565624 257.6 44.565624 255.49063Q44.565624 253.36563 44.065624 252.67813Q43.58125 251.975 42.83125 251.975Q42.1125 251.975 41.675 252.58438Q41.128124 253.36563 41.128124 255.49063ZM47.05 255.49063Q47.05 253.95938 47.3625 253.0375Q47.675 252.1 48.284374 251.6Q48.909374 251.1 49.846874 251.1Q50.534374 251.1 51.05 251.38126Q51.58125 251.6625 51.925 252.19376Q52.26875 252.70938 52.45625 253.45938Q52.64375 254.20938 52.64375 255.49063Q52.64375 257.00626 52.33125 257.92813Q52.034374 258.85 51.409374 259.36563Q50.8 259.86563 49.846874 259.86563Q48.6125 259.86563 47.89375 258.975Q47.05 257.9125 47.05 255.49063ZM48.128124 255.49063Q48.128124 257.6 48.628124 258.30313Q49.128124 259.00626 49.846874 259.00626Q50.58125 259.00626 51.065624 258.30313Q51.565624 257.6 51.565624 255.49063Q51.565624 253.36563 51.065624 252.67813Q50.58125 251.975 49.83125 251.975Q49.1125 251.975 48.675 252.58438Q48.128124 253.36563 48.128124 255.49063ZM54.05 255.49063Q54.05 253.95938 54.3625 253.0375Q54.675 252.1 55.284374 251.6Q55.909374 251.1 56.846874 251.1Q57.534374 251.1 58.05 251.38126Q58.58125 251.6625 58.925 252.19376Q59.26875 252.70938 59.45625 253.45938Q59.64375 254.20938 59.64375 255.49063Q59.64375 257.00626 59.33125 257.92813Q59.034374 258.85 58.409374 259.36563Q57.8 259.86563 56.846874 259.86563Q55.6125 259.86563 54.89375 258.975Q54.05 257.9125 54.05 255.49063ZM55.128124 255.49063Q55.128124 257.6 55.628124 258.30313Q56.128124 259.00626 56.846874 259.00626Q57.58125 259.00626 58.065624 258.30313Q58.565624 257.6 58.565624 255.49063Q58.565624 253.36563 58.065624 252.67813Q57.58125 251.975 56.83125 251.975Q56.1125 251.975 55.675 252.58438Q55.128124 253.36563 55.128124 255.49063Z" fill-rule="nonzero"/><path fill="#000000" d="M26.05 180.75L27.159374 180.65625Q27.284374 181.46875 27.721874 181.875Q28.175 182.28125 28.815624 182.28125Q29.565624 182.28125 30.096874 181.70312Q30.628124 181.125 30.628124 180.1875Q30.628124 179.28125 30.1125 178.76562Q29.6125 178.23438 28.784374 178.23438Q28.284374 178.23438 27.8625 178.46875Q27.45625 178.70312 27.221874 179.0625L26.2375 178.9375L27.065624 174.53125L31.346874 174.53125L31.346874 175.53125L27.909374 175.53125L27.45625 177.84375Q28.221874 177.29688 29.065624 177.29688Q30.190624 177.29688 30.95625 178.07812Q31.7375 178.85938 31.7375 180.09375Q31.7375 181.25 31.065624 182.10938Q30.2375 183.14062 28.815624 183.14062Q27.64375 183.14062 26.89375 182.48438Q26.159374 181.82812 26.05 180.75ZM33.05 178.76562Q33.05 177.23438 33.3625 176.3125Q33.675 175.375 34.284374 174.875Q34.909374 174.375 35.846874 174.375Q36.534374 174.375 37.05 174.65625Q37.58125 174.9375 37.925 175.46875Q38.26875 175.98438 38.45625 176.73438Q38.64375 177.48438 38.64375 178.76562Q38.64375 180.28125 38.33125 181.20312Q38.034374 182.125 37.409374 182.64062Q36.8 183.14062 35.846874 183.14062Q34.6125 183.14062 33.89375 182.25Q33.05 181.1875 33.05 178.76562ZM34.128124 178.76562Q34.128124 180.875 34.628124 181.57812Q35.128124 182.28125 35.846874 182.28125Q36.58125 182.28125 37.065624 181.57812Q37.565624 180.875 37.565624 178.76562Q37.565624 176.64062 37.065624 175.95312Q36.58125 175.25 35.83125 175.25Q35.1125 175.25 34.675 175.85938Q34.128124 176.64062 34.128124 178.76562ZM40.05 178.76562Q40.05 177.23438 40.3625 176.3125Q40.675 175.375 41.284374 174.875Q41.909374 174.375 42.846874 174.375Q43.534374 174.375 44.05 174.65625Q44.58125 174.9375 44.925 175.46875Q45.26875 175.98438 45.45625 176.73438Q45.64375 177.48438 45.64375 178.76562Q45.64375 180.28125 45.33125 181.20312Q45.034374 182.125 44.409374 182.64062Q43.8 183.14062 42.846874 183.14062Q41.6125 183.14062 40.89375 182.25Q40.05 181.1875 40.05 178.76562ZM41.128124 178.76562Q41.128124 180.875 41.628124 181.57812Q42.128124 182.28125 42.846874 182.28125Q43.58125 182.28125 44.065624 181.57812Q44.565624 180.875 44.565624 178.76562Q44.565624 176.64062 44.065624 175.95312Q43.58125 175.25 42.83125 175.25Q42.1125 175.25 41.675 175.85938Q41.128124 176.64062 41.128124 178.76562ZM47.05 178.76562Q47.05 177.23438 47.3625 176.3125Q47.675 175.375 48.284374 174.875Q48.909374 174.375 49.846874 174.375Q50.534374 174.375 51.05 174.65625Q51.58125 174.9375 51.925 175.46875Q52.26875 175.98438 52.45625 176.73438Q52.64375 177.48438 52.64375 178.76562Q52.64375 180.28125 52.33125 181.20312Q52.034374 182.125 51.409374 182.64062Q50.8 183.14062 49.846874 183.14062Q48.6125 183.14062 47.89375 182.25Q47.05 181.1875 47.05 178.76562ZM48.128124 178.76562Q48.128124 180.875 48.628124 181.57812Q49.128124 182.28125 49.846874 182.28125Q50.58125 182.28125 51.065624 181.57812Q51.565624 180.875 51.565624 178.76562Q51.565624 176.64062 51.065624 175.95312Q50.58125 175.25 49.83125 175.25Q49.1125 175.25 48.675 175.85938Q48.128124 176.64062 48.128124 178.76562ZM54.05 178.76562Q54.05 177.23438 54.3625 176.3125Q54.675 175.375 55.284374 174.875Q55.909374 174.375 56.846874 174.375Q57.534374 174.375 58.05 174.65625Q58.58125 174.9375 58.925 175.46875Q59.26875 175.98438 59.45625 176.73438Q59.64375 177.48438 59.64375 178.76562Q59.64375 180.28125 59.33125 181.20312Q59.034374 182.125 58.409374 182.64062Q57.8 183.14062 56.846874 183.14062Q55.6125 183.14062 54.89375 182.25Q54.05 181.1875 54.05 178.76562ZM55.128124 178.76562Q55.128124 180.875 55.628124 181.57812Q56.128124 182.28125 56.846874 182.28125Q57.58125 182.28125 58.065624 181.57812Q58.565624 180.875 58.565624 178.76562Q58.565624 176.64062 58.065624 175.95312Q57.58125 175.25 56.83125 175.25Q56.1125 175.25 55.675 175.85938Q55.128124 176.64062 55.128124 178.76562Z" fill-rule="nonzero"/><path fill="#000000" d="M26.1125 98.80625L26.1125 97.79063L31.675 97.79063L31.675 98.61875Q30.8625 99.49375 30.05 100.94688Q29.253124 102.38438 28.815624 103.91563Q28.4875 104.99375 28.409374 106.275L27.315624 106.275Q27.33125 105.25938 27.70625 103.82188Q28.096874 102.38438 28.8 101.05625Q29.51875 99.72813 30.33125 98.80625L26.1125 98.80625ZM33.05 104.025L34.159374 103.93125Q34.284374 104.74375 34.721874 105.15Q35.175 105.55625 35.815624 105.55625Q36.565624 105.55625 37.096874 104.97813Q37.628124 104.4 37.628124 103.4625Q37.628124 102.55625 37.1125 102.04063Q36.6125 101.50938 35.784374 101.50938Q35.284374 101.50938 34.8625 101.74375Q34.45625 101.97813 34.221874 102.3375L33.2375 102.2125L34.065624 97.80625L38.346874 97.80625L38.346874 98.80625L34.909374 98.80625L34.45625 101.11875Q35.221874 100.57188 36.065624 100.57188Q37.190624 100.57188 37.95625 101.35313Q38.7375 102.13438 38.7375 103.36875Q38.7375 104.525 38.065624 105.38438Q37.2375 106.41563 35.815624 106.41563Q34.64375 106.41563 33.89375 105.75938Q33.159374 105.10313 33.05 104.025ZM40.05 102.04063Q40.05 100.50938 40.3625 99.5875Q40.675 98.65 41.284374 98.15Q41.909374 97.65 42.846874 97.65Q43.534374 97.65 44.05 97.93125Q44.58125 98.2125 44.925 98.74375Q45.26875 99.25938 45.45625 100.00938Q45.64375 100.75938 45.64375 102.04063Q45.64375 103.55625 45.33125 104.47813Q45.034374 105.4 44.409374 105.91563Q43.8 106.41563 42.846874 106.41563Q41.6125 106.41563 40.89375 105.525Q40.05 104.4625 40.05 102.04063ZM41.128124 102.04063Q41.128124 104.15 41.628124 104.85313Q42.128124 105.55625 42.846874 105.55625Q43.58125 105.55625 44.065624 104.85313Q44.565624 104.15 44.565624 102.04063Q44.565624 99.91563 44.065624 99.22813Q43.58125 98.525 42.83125 98.525Q42.1125 98.525 41.675 99.13438Q41.128124 99.91563 41.128124 102.04063ZM47.05 102.04063Q47.05 100.50938 47.3625 99.5875Q47.675 98.65 48.284374 98.15Q48.909374 97.65 49.846874 97.65Q50.534374 97.65 51.05 97.93125Q51.58125 98.2125 51.925 98.74375Q52.26875 99.25938 52.45625 100.00938Q52.64375 100.75938 52.64375 102.04063Q52.64375 103.55625 52.33125 104.47813Q52.034374 105.4 51.409374 105.91563Q50.8 106.41563 49.846874 106.41563Q48.6125 106.41563 47.89375 105.525Q47.05 104.4625 47.05 102.04063ZM48.128124 102.04063Q48.128124 104.15 48.628124 104.85313Q49.128124 105.55625 49.846874 105.55625Q50.58125 105.55625 51.065624 104.85313Q51.565624 104.15 51.565624 102.04063Q51.565624 99.91563 51.065624 99.22813Q50.58125 98.525 49.83125 98.525Q49.1125 98.525 48.675 99.13438Q48.128124 99.91563 48.128124 102.04063ZM54.05 102.04063Q54.05 100.50938 54.3625 99.5875Q54.675 98.65 55.284374 98.15Q55.909374 97.65 56.846874 97.65Q57.534374 97.65 58.05 97.93125Q58.58125 98.2125 58.925 98.74375Q59.26875 99.25938 59.45625 100.00938Q59.64375 100.75938 59.64375 102.04063Q59.64375 103.55625 59.33125 104.47813Q59.034374 105.4 58.409374 105.91563Q57.8 106.41563 56.846874 106.41563Q55.6125 106.41563 54.89375 105.525Q54.05 104.4625 54.05 102.04063ZM55.128124 102.04063Q55.128124 104.15 55.628124 104.85313Q56.128124 105.55625 56.846874 105.55625Q57.58125 105.55625 58.065624 104.85313Q58.565624 104.15 58.565624 102.04063Q58.565624 99.91563 58.065624 99.22813Q57.58125 98.525 56.83125 98.525Q56.1125 98.525 55.675 99.13438Q55.128124 99.91563 55.128124 102.04063Z" fill-rule="nonzero"/><path fill="#000000" d="M23.01875 29.55L21.971874 29.55L21.971874 22.83125Q21.58125 23.190624 20.95625 23.565624Q20.346874 23.925 19.8625 24.096874L19.8625 23.08125Q20.7375 22.659374 21.39375 22.08125Q22.065624 21.4875 22.346874 20.925L23.01875 20.925L23.01875 29.55ZM26.05 25.315624Q26.05 23.784374 26.3625 22.8625Q26.675 21.925 27.284374 21.425Q27.909374 20.925 28.846874 20.925Q29.534374 20.925 30.05 21.20625Q30.58125 21.4875 30.925 22.01875Q31.26875 22.534374 31.45625 23.284374Q31.64375 24.034374 31.64375 25.315624Q31.64375 26.83125 31.33125 27.753124Q31.034374 28.675 30.409374 29.190624Q29.8 29.690624 28.846874 29.690624Q27.6125 29.690624 26.89375 28.8Q26.05 27.7375 26.05 25.315624ZM27.128124 25.315624Q27.128124 27.425 27.628124 28.128124Q28.128124 28.83125 28.846874 28.83125Q29.58125 28.83125 30.065624 28.128124Q30.565624 27.425 30.565624 25.315624Q30.565624 23.190624 30.065624 22.503124Q29.58125 21.8 28.83125 21.8Q28.1125 21.8 27.675 22.409374Q27.128124 23.190624 27.128124 25.315624ZM33.05 25.315624Q33.05 23.784374 33.3625 22.8625Q33.675 21.925 34.284374 21.425Q34.909374 20.925 35.846874 20.925Q36.534374 20.925 37.05 21.20625Q37.58125 21.4875 37.925 22.01875Q38.26875 22.534374 38.45625 23.284374Q38.64375 24.034374 38.64375 25.315624Q38.64375 26.83125 38.33125 27.753124Q38.034374 28.675 37.409374 29.190624Q36.8 29.690624 35.846874 29.690624Q34.6125 29.690624 33.89375 28.8Q33.05 27.7375 33.05 25.315624ZM34.128124 25.315624Q34.128124 27.425 34.628124 28.128124Q35.128124 28.83125 35.846874 28.83125Q36.58125 28.83125 37.065624 28.128124Q37.565624 27.425 37.565624 25.315624Q37.565624 23.190624 37.065624 22.503124Q36.58125 21.8 35.83125 21.8Q35.1125 21.8 34.675 22.409374Q34.128124 23.190624 34.128124 25.315624ZM40.05 25.315624Q40.05 23.784374 40.3625 22.8625Q40.675 21.925 41.284374 21.425Q41.909374 20.925 42.846874 20.925Q43.534374 20.925 44.05 21.20625Q44.58125 21.4875 44.925 22.01875Q45.26875 22.534374 45.45625 23.284374Q45.64375 24.034374 45.64375 25.315624Q45.64375 26.83125 45.33125 27.753124Q45.034374 28.675 44.409374 29.190624Q43.8 29.690624 42.846874 29.690624Q41.6125 29.690624 40.89375 28.8Q40.05 27.7375 40.05 25.315624ZM41.128124 25.315624Q41.128124 27.425 41.628124 28.128124Q42.128124 28.83125 42.846874 28.83125Q43.58125 28.83125 44.065624 28.128124Q44.565624 27.425 44.565624 25.315624Q44.565624 23.190624 44.065624 22.503124Q43.58125 21.8 42.83125 21.8Q42.1125 21.8 41.675 22.409374Q41.128124 23.190624 41.128124 25.315624ZM47.05 25.315624Q47.05 23.784374 47.3625 22.8625Q47.675 21.925 48.284374 21.425Q48.909374 20.925 49.846874 20.925Q50.534374 20.925 51.05 21.20625Q51.58125 21.4875 51.925 22.01875Q52.26875 22.534374 52.45625 23.284374Q52.64375 24.034374 52.64375 25.315624Q52.64375 26.83125 52.33125 27.753124Q52.034374 28.675 51.409374 29.190624Q50.8 29.690624 49.846874 29.690624Q48.6125 29.690624 47.89375 28.8Q47.05 27.7375 47.05 25.315624ZM48.128124 25.315624Q48.128124 27.425 48.628124 28.128124Q49.128124 28.83125 49.846874 28.83125Q50.58125 28.83125 51.065624 28.128124Q51.565624 27.425 51.565624 25.315624Q51.565624 23.190624 51.065624 22.503124Q50.58125 21.8 49.83125 21.8Q49.1125 21.8 48.675 22.409374Q48.128124 23.190624 48.128124 25.315624ZM54.05 25.315624Q54.05 23.784374 54.3625 22.8625Q54.675 21.925 55.284374 21.425Q55.909374 20.925 56.846874 20.925Q57.534374 20.925 58.05 21.20625Q58.58125 21.4875 58.925 22.01875Q59.26875 22.534374 59.45625 23.284374Q59.64375 24.034374 59.64375 25.315624Q59.64375 26.83125 59.33125 27.753124Q59.034374 28.675 58.409374 29.190624Q57.8 29.690624 56.846874 29.690624Q55.6125 29.690624 54.89375 28.8Q54.05 27.7375 54.05 25.315624ZM55.128124 25.315624Q55.128124 27.425 55.628124 28.128124Q56.128124 28.83125 56.846874 28.83125Q57.58125 28.83125 58.065624 28.128124Q58.565624 27.425 58.565624 25.315624Q58.565624 23.190624 58.065624 22.503124Q57.58125 21.8 56.83125 21.8Q56.1125 21.8 55.675 22.409374Q55.128124 23.190624 55.128124 25.315624Z" fill-rule="nonzero"/><path fill="#000000" d="M94.82327 349.45L94.82327 340.85626L95.9639 340.85626L95.9639 345.1219L100.22952 340.85626L101.7764 340.85626L98.16702 344.34064L101.93265 349.45L100.43265 349.45L97.37015 345.10626L95.9639 346.46564L95.9639 349.45L94.82327 349.45ZM102.74515 342.075L102.74515 340.85626L103.80765 340.85626L103.80765 342.075L102.74515 342.075ZM102.74515 349.45L102.74515 343.23126L103.80765 343.23126L103.80765 349.45L102.74515 349.45ZM105.74515 349.45L105.74515 343.23126L106.68265 343.23126L106.68265 344.10626Q107.37015 343.09064 108.66702 343.09064Q109.22952 343.09064 109.69827 343.29376Q110.18265 343.4969 110.41702 343.825Q110.6514 344.15314 110.74515 344.59064Q110.79202 344.8875 110.79202 345.6219L110.79202 349.45L109.74515 349.45L109.74515 345.66876Q109.74515 345.0125 109.62015 344.7Q109.49515 344.3875 109.18265 344.2Q108.87015 343.9969 108.44827 343.9969Q107.7764 343.9969 107.2764 344.4344Q106.79202 344.85626 106.79202 346.04376L106.79202 349.45L105.74515 349.45ZM116.99515 347.45L118.0889 347.575Q117.8389 348.52814 117.13577 349.0594Q116.43265 349.59064 115.35452 349.59064Q113.99515 349.59064 113.18265 348.7469Q112.38577 347.90314 112.38577 346.3875Q112.38577 344.825 113.19827 343.96564Q114.01077 343.09064 115.29202 343.09064Q116.54202 343.09064 117.32327 343.9344Q118.12015 344.77814 118.12015 346.325Q118.12015 346.41876 118.12015 346.60626L113.47952 346.60626Q113.54202 347.6375 114.05765 348.1844Q114.57327 348.71564 115.35452 348.71564Q115.93265 348.71564 116.3389 348.41876Q116.76077 348.10626 116.99515 347.45ZM113.54202 345.7469L117.01077 345.7469Q116.94827 344.95 116.62015 344.5594Q116.10452 343.95 115.30765 343.95Q114.57327 343.95 114.07327 344.4344Q113.5889 344.91876 113.54202 345.7469ZM119.32327 347.59064L120.35452 347.4344Q120.44827 348.0594 120.8389 348.3875Q121.24515 348.71564 121.97952 348.71564Q122.69827 348.71564 123.04202 348.4344Q123.4014 348.1375 123.4014 347.73126Q123.4014 347.3719 123.0889 347.16876Q122.87015 347.02814 122.01077 346.8094Q120.85452 346.5125 120.4014 346.3094Q119.9639 346.09064 119.72952 345.71564Q119.49515 345.34064 119.49515 344.8719Q119.49515 344.46564 119.68265 344.10626Q119.87015 343.7469 120.19827 343.5125Q120.44827 343.34064 120.87015 343.21564Q121.29202 343.09064 121.79202 343.09064Q122.51077 343.09064 123.05765 343.3094Q123.62015 343.5125 123.88577 343.8719Q124.1514 344.23126 124.24515 344.825L123.2139 344.96564Q123.1514 344.4969 122.80765 344.23126Q122.47952 343.95 121.85452 343.95Q121.13577 343.95 120.82327 344.2Q120.51077 344.4344 120.51077 344.7625Q120.51077 344.96564 120.63577 345.1219Q120.7764 345.29376 121.04202 345.40314Q121.19827 345.46564 121.97952 345.66876Q123.10452 345.98126 123.54202 346.16876Q123.97952 346.35626 124.22952 346.71564Q124.47952 347.075 124.47952 347.6219Q124.47952 348.15314 124.16702 348.6219Q123.87015 349.075 123.29202 349.34064Q122.7139 349.59064 121.97952 349.59064Q120.76077 349.59064 120.12015 349.09064Q119.49515 348.575 119.32327 347.59064ZM129.04202 348.5125L129.19827 349.4344Q128.74515 349.52814 128.4014 349.52814Q127.82327 349.52814 127.51077 349.35626Q127.19827 349.16876 127.05765 348.8719Q126.93265 348.575 126.93265 347.6219L126.93265 344.04376L126.16702 344.04376L126.16702 343.23126L126.93265 343.23126L126.93265 341.6844L127.97952 341.0594L127.97952 343.23126L129.04202 343.23126L129.04202 344.04376L127.97952 344.04376L127.97952 347.6844Q127.97952 348.1375 128.0264 348.2625Q128.0889 348.3875 128.2139 348.46564Q128.3389 348.54376 128.57327 348.54376Q128.76077 348.54376 129.04202 348.5125ZM129.74515 349.45L129.74515 340.85626L130.79202 340.85626L130.79202 343.9344Q131.5264 343.09064 132.6514 343.09064Q133.35452 343.09064 133.85452 343.3719Q134.37015 343.6375 134.5889 344.1219Q134.80765 344.59064 134.80765 345.5125L134.80765 349.45L133.76077 349.45L133.76077 345.5125Q133.76077 344.71564 133.41702 344.35626Q133.07327 343.9969 132.44827 343.9969Q131.97952 343.9969 131.55765 344.2469Q131.1514 344.48126 130.9639 344.90314Q130.79202 345.3094 130.79202 346.04376L130.79202 349.45L129.74515 349.45ZM140.99515 347.45L142.0889 347.575Q141.8389 348.52814 141.13577 349.0594Q140.43265 349.59064 139.35452 349.59064Q137.99515 349.59064 137.18265 348.7469Q136.38577 347.90314 136.38577 346.3875Q136.38577 344.825 137.19827 343.96564Q138.01077 343.09064 139.29202 343.09064Q140.54202 343.09064 141.32327 343.9344Q142.12015 344.77814 142.12015 346.325Q142.12015 346.41876 142.12015 346.60626L137.47952 346.60626Q137.54202 347.6375 138.05765 348.1844Q138.57327 348.71564 139.35452 348.71564Q139.93265 348.71564 140.3389 348.41876Q140.76077 348.10626 140.99515 347.45ZM137.54202 345.7469L141.01077 345.7469Q140.94827 344.95 140.62015 344.5594Q140.10452 343.95 139.30765 343.95Q138.57327 343.95 138.07327 344.4344Q137.5889 344.91876 137.54202 345.7469ZM146.04202 348.5125L146.19827 349.4344Q145.74515 349.52814 145.4014 349.52814Q144.82327 349.52814 144.51077 349.35626Q144.19827 349.16876 144.05765 348.8719Q143.93265 348.575 143.93265 347.6219L143.93265 344.04376L143.16702 344.04376L143.16702 343.23126L143.93265 343.23126L143.93265 341.6844L144.97952 341.0594L144.97952 343.23126L146.04202 343.23126L146.04202 344.04376L144.97952 344.04376L144.97952 347.6844Q144.97952 348.1375 145.0264 348.2625Q145.0889 348.3875 145.2139 348.46564Q145.3389 348.54376 145.57327 348.54376Q145.76077 348.54376 146.04202 348.5125ZM146.74515 342.075L146.74515 340.85626L147.80765 340.85626L147.80765 342.075L146.74515 342.075ZM146.74515 349.45L146.74515 343.23126L147.80765 343.23126L147.80765 349.45L146.74515 349.45ZM153.80765 347.16876L154.8389 347.3094Q154.66702 348.3719 153.9639 348.98126Q153.26077 349.59064 152.24515 349.59064Q150.9639 349.59064 150.18265 348.7625Q149.41702 347.91876 149.41702 346.35626Q149.41702 345.35626 149.74515 344.60626Q150.0889 343.84064 150.76077 343.46564Q151.44827 343.09064 152.26077 343.09064Q153.26077 343.09064 153.9014 343.60626Q154.55765 344.10626 154.74515 345.0594L153.7139 345.21564Q153.57327 344.59064 153.19827 344.27814Q152.82327 343.95 152.29202 343.95Q151.49515 343.95 150.99515 344.52814Q150.49515 345.09064 150.49515 346.325Q150.49515 347.59064 150.97952 348.15314Q151.4639 348.71564 152.22952 348.71564Q152.85452 348.71564 153.26077 348.34064Q153.68265 347.96564 153.80765 347.16876ZM162.7764 349.45L162.7764 348.66876Q162.18265 349.59064 161.04202 349.59064Q160.29202 349.59064 159.66702 349.1844Q159.04202 348.7625 158.69827 348.02814Q158.35452 347.29376 158.35452 346.34064Q158.35452 345.41876 158.66702 344.65314Q158.97952 343.8875 159.60452 343.4969Q160.22952 343.09064 160.99515 343.09064Q161.55765 343.09064 161.99515 343.325Q162.43265 343.5594 162.7139 343.9344L162.7139 340.85626L163.76077 340.85626L163.76077 349.45L162.7764 349.45ZM159.44827 346.34064Q159.44827 347.54376 159.94827 348.1375Q160.44827 348.71564 161.13577 348.71564Q161.82327 348.71564 162.30765 348.15314Q162.79202 347.59064 162.79202 346.4344Q162.79202 345.15314 162.29202 344.5594Q161.80765 343.96564 161.0889 343.96564Q160.38577 343.96564 159.91702 344.54376Q159.44827 345.10626 159.44827 346.34064ZM169.80765 348.6844Q169.2139 349.1844 168.66702 349.3875Q168.13577 349.59064 167.51077 349.59064Q166.47952 349.59064 165.93265 349.09064Q165.38577 348.59064 165.38577 347.8094Q165.38577 347.35626 165.5889 346.98126Q165.79202 346.59064 166.13577 346.3719Q166.47952 346.1375 166.9014 346.02814Q167.19827 345.9344 167.8389 345.85626Q169.10452 345.71564 169.7139 345.4969Q169.7139 345.27814 169.7139 345.23126Q169.7139 344.575 169.41702 344.3094Q169.01077 343.96564 168.2139 343.96564Q167.47952 343.96564 167.12015 344.23126Q166.76077 344.48126 166.5889 345.1375L165.55765 344.9969Q165.69827 344.34064 166.0264 343.9344Q166.35452 343.52814 166.9639 343.3094Q167.57327 343.09064 168.37015 343.09064Q169.16702 343.09064 169.66702 343.27814Q170.16702 343.46564 170.4014 343.7469Q170.63577 344.02814 170.72952 344.46564Q170.7764 344.73126 170.7764 345.4344L170.7764 346.84064Q170.7764 348.3094 170.8389 348.7Q170.91702 349.09064 171.12015 349.45L170.01077 349.45Q169.85452 349.1219 169.80765 348.6844ZM169.7139 346.325Q169.13577 346.5594 167.99515 346.73126Q167.3389 346.825 167.07327 346.95Q166.80765 347.0594 166.6514 347.27814Q166.51077 347.4969 166.51077 347.77814Q166.51077 348.2 166.82327 348.48126Q167.1514 348.7625 167.76077 348.7625Q168.37015 348.7625 168.8389 348.4969Q169.32327 348.23126 169.54202 347.7625Q169.7139 347.40314 169.7139 346.71564L169.7139 346.325ZM175.04202 348.5125L175.19827 349.4344Q174.74515 349.52814 174.4014 349.52814Q173.82327 349.52814 173.51077 349.35626Q173.19827 349.16876 173.05765 348.8719Q172.93265 348.575 172.93265 347.6219L172.93265 344.04376L172.16702 344.04376L172.16702 343.23126L172.93265 343.23126L172.93265 341.6844L173.97952 341.0594L173.97952 343.23126L175.04202 343.23126L175.04202 344.04376L173.97952 344.04376L173.97952 347.6844Q173.97952 348.1375 174.0264 348.2625Q174.0889 348.3875 174.2139 348.46564Q174.3389 348.54376 174.57327 348.54376Q174.76077 348.54376 175.04202 348.5125ZM179.80765 348.6844Q179.2139 349.1844 178.66702 349.3875Q178.13577 349.59064 177.51077 349.59064Q176.47952 349.59064 175.93265 349.09064Q175.38577 348.59064 175.38577 347.8094Q175.38577 347.35626 175.5889 346.98126Q175.79202 346.59064 176.13577 346.3719Q176.47952 346.1375 176.9014 346.02814Q177.19827 345.9344 177.8389 345.85626Q179.10452 345.71564 179.7139 345.4969Q179.7139 345.27814 179.7139 345.23126Q179.7139 344.575 179.41702 344.3094Q179.01077 343.96564 178.2139 343.96564Q177.47952 343.96564 177.12015 344.23126Q176.76077 344.48126 176.5889 345.1375L175.55765 344.9969Q175.69827 344.34064 176.0264 343.9344Q176.35452 343.52814 176.9639 343.3094Q177.57327 343.09064 178.37015 343.09064Q179.16702 343.09064 179.66702 343.27814Q180.16702 343.46564 180.4014 343.7469Q180.63577 344.02814 180.72952 344.46564Q180.7764 344.73126 180.7764 345.4344L180.7764 346.84064Q180.7764 348.3094 180.8389 348.7Q180.91702 349.09064 181.12015 349.45L180.01077 349.45Q179.85452 349.1219 179.80765 348.6844ZM179.7139 346.325Q179.13577 346.5594 177.99515 346.73126Q177.3389 346.825 177.07327 346.95Q176.80765 347.0594 176.6514 347.27814Q176.51077 347.4969 176.51077 347.77814Q176.51077 348.2 176.82327 348.48126Q177.1514 348.7625 177.76077 348.7625Q178.37015 348.7625 178.8389 348.4969Q179.32327 348.23126 179.54202 347.7625Q179.7139 347.40314 179.7139 346.71564L179.7139 346.325ZM182.32327 347.59064L183.35452 347.4344Q183.44827 348.0594 183.8389 348.3875Q184.24515 348.71564 184.97952 348.71564Q185.69827 348.71564 186.04202 348.4344Q186.4014 348.1375 186.4014 347.73126Q186.4014 347.3719 186.0889 347.16876Q185.87015 347.02814 185.01077 346.8094Q183.85452 346.5125 183.4014 346.3094Q182.9639 346.09064 182.72952 345.71564Q182.49515 345.34064 182.49515 344.8719Q182.49515 344.46564 182.68265 344.10626Q182.87015 343.7469 183.19827 343.5125Q183.44827 343.34064 183.87015 343.21564Q184.29202 343.09064 184.79202 343.09064Q185.51077 343.09064 186.05765 343.3094Q186.62015 343.5125 186.88577 343.8719Q187.1514 344.23126 187.24515 344.825L186.2139 344.96564Q186.1514 344.4969 185.80765 344.23126Q185.47952 343.95 184.85452 343.95Q184.13577 343.95 183.82327 344.2Q183.51077 344.4344 183.51077 344.7625Q183.51077 344.96564 183.63577 345.1219Q183.7764 345.29376 184.04202 345.40314Q184.19827 345.46564 184.97952 345.66876Q186.10452 345.98126 186.54202 346.16876Q186.97952 346.35626 187.22952 346.71564Q187.47952 347.075 187.47952 347.6219Q187.47952 348.15314 187.16702 348.6219Q186.87015 349.075 186.29202 349.34064Q185.7139 349.59064 184.97952 349.59064Q183.76077 349.59064 183.12015 349.09064Q182.49515 348.575 182.32327 347.59064ZM193.99515 347.45L195.0889 347.575Q194.8389 348.52814 194.13577 349.0594Q193.43265 349.59064 192.35452 349.59064Q190.99515 349.59064 190.18265 348.7469Q189.38577 347.90314 189.38577 346.3875Q189.38577 344.825 190.19827 343.96564Q191.01077 343.09064 192.29202 343.09064Q193.54202 343.09064 194.32327 343.9344Q195.12015 344.77814 195.12015 346.325Q195.12015 346.41876 195.12015 346.60626L190.47952 346.60626Q190.54202 347.6375 191.05765 348.1844Q191.57327 348.71564 192.35452 348.71564Q192.93265 348.71564 193.3389 348.41876Q193.76077 348.10626 193.99515 347.45ZM190.54202 345.7469L194.01077 345.7469Q193.94827 344.95 193.62015 344.5594Q193.10452 343.95 192.30765 343.95Q191.57327 343.95 191.07327 344.4344Q190.5889 344.91876 190.54202 345.7469ZM199.04202 348.5125L199.19827 349.4344Q198.74515 349.52814 198.4014 349.52814Q197.82327 349.52814 197.51077 349.35626Q197.19827 349.16876 197.05765 348.8719Q196.93265 348.575 196.93265 347.6219L196.93265 344.04376L196.16702 344.04376L196.16702 343.23126L196.93265 343.23126L196.93265 341.6844L197.97952 341.0594L197.97952 343.23126L199.04202 343.23126L199.04202 344.04376L197.97952 344.04376L197.97952 347.6844Q197.97952 348.1375 198.0264 348.2625Q198.0889 348.3875 198.2139 348.46564Q198.3389 348.54376 198.57327 348.54376Q198.76077 348.54376 199.04202 348.5125Z" fill-rule="nonzero"/><path fill="#000000" d="M229.92546 349.45L229.92546 341.8719L227.09734 341.8719L227.09734 340.85626L233.90984 340.85626L233.90984 341.8719L231.06609 341.8719L231.06609 349.45L229.92546 349.45ZM238.86296 347.45L239.95671 347.575Q239.70671 348.52814 239.00359 349.0594Q238.30046 349.59064 237.22234 349.59064Q235.86296 349.59064 235.05046 348.7469Q234.25359 347.90314 234.25359 346.3875Q234.25359 344.825 235.06609 343.96564Q235.87859 343.09064 237.15984 343.09064Q238.40984 343.09064 239.19109 343.9344Q239.98796 344.77814 239.98796 346.325Q239.98796 346.41876 239.98796 346.60626L235.34734 346.60626Q235.40984 347.6375 235.92546 348.1844Q236.44109 348.71564 237.22234 348.71564Q237.80046 348.71564 238.20671 348.41876Q238.62859 348.10626 238.86296 347.45ZM235.40984 345.7469L238.87859 345.7469Q238.81609 344.95 238.48796 344.5594Q237.97234 343.95 237.17546 343.95Q236.44109 343.95 235.94109 344.4344Q235.45671 344.91876 235.40984 345.7469ZM241.58171 349.45L241.58171 340.85626L242.64421 340.85626L242.64421 349.45L241.58171 349.45ZM248.86296 347.45L249.95671 347.575Q249.70671 348.52814 249.00359 349.0594Q248.30046 349.59064 247.22234 349.59064Q245.86296 349.59064 245.05046 348.7469Q244.25359 347.90314 244.25359 346.3875Q244.25359 344.825 245.06609 343.96564Q245.87859 343.09064 247.15984 343.09064Q248.40984 343.09064 249.19109 343.9344Q249.98796 344.77814 249.98796 346.325Q249.98796 346.41876 249.98796 346.60626L245.34734 346.60626Q245.40984 347.6375 245.92546 348.1844Q246.44109 348.71564 247.22234 348.71564Q247.80046 348.71564 248.20671 348.41876Q248.62859 348.10626 248.86296 347.45ZM245.40984 345.7469L248.87859 345.7469Q248.81609 344.95 248.48796 344.5594Q247.97234 343.95 247.17546 343.95Q246.44109 343.95 245.94109 344.4344Q245.45671 344.91876 245.40984 345.7469ZM251.22234 346.34064Q251.22234 344.60626 252.17546 343.77814Q252.97234 343.09064 254.12859 343.09064Q255.40984 343.09064 256.22235 343.9344Q257.05048 344.7625 257.05048 346.2469Q257.05048 347.45 256.6911 348.1375Q256.33173 348.825 255.62859 349.21564Q254.94109 349.59064 254.12859 349.59064Q252.83171 349.59064 252.01921 348.7625Q251.22234 347.91876 251.22234 346.34064ZM252.30046 346.34064Q252.30046 347.52814 252.81609 348.1219Q253.34734 348.71564 254.12859 348.71564Q254.92546 348.71564 255.44109 348.1219Q255.95671 347.52814 255.95671 346.3094Q255.95671 345.15314 255.42546 344.5594Q254.90984 343.96564 254.12859 343.96564Q253.34734 343.96564 252.81609 344.5594Q252.30046 345.1375 252.30046 346.34064ZM258.61298 351.84064L258.61298 343.23126L259.5661 343.23126L259.5661 344.02814Q259.90985 343.5594 260.33173 343.325Q260.76923 343.09064 261.3786 343.09064Q262.17548 343.09064 262.78485 343.4969Q263.39423 343.90314 263.6911 344.65314Q264.0036 345.40314 264.0036 346.29376Q264.0036 347.2469 263.65985 348.0125Q263.33173 348.77814 262.67548 349.1844Q262.01923 349.59064 261.30048 349.59064Q260.76923 349.59064 260.34735 349.3719Q259.92548 349.1375 259.65985 348.8094L259.65985 351.84064L258.61298 351.84064ZM259.5661 346.3719Q259.5661 347.575 260.05048 348.15314Q260.53485 348.71564 261.22235 348.71564Q261.92548 348.71564 262.42548 348.1219Q262.92548 347.52814 262.92548 346.27814Q262.92548 345.09064 262.4411 344.5125Q261.95673 343.91876 261.26923 343.91876Q260.59735 343.91876 260.08173 344.54376Q259.5661 345.16876 259.5661 346.3719ZM269.86298 347.45L270.95673 347.575Q270.70673 348.52814 270.0036 349.0594Q269.30048 349.59064 268.22235 349.59064Q266.86298 349.59064 266.05048 348.7469Q265.2536 347.90314 265.2536 346.3875Q265.2536 344.825 266.0661 343.96564Q266.8786 343.09064 268.15985 343.09064Q269.40985 343.09064 270.1911 343.9344Q270.98798 344.77814 270.98798 346.325Q270.98798 346.41876 270.98798 346.60626L266.34735 346.60626Q266.40985 347.6375 266.92548 348.1844Q267.4411 348.71564 268.22235 348.71564Q268.80048 348.71564 269.20673 348.41876Q269.6286 348.10626 269.86298 347.45ZM266.40985 345.7469L269.8786 345.7469Q269.8161 344.95 269.48798 344.5594Q268.97235 343.95 268.17548 343.95Q267.4411 343.95 266.9411 344.4344Q266.45673 344.91876 266.40985 345.7469ZM272.59735 349.45L272.59735 343.23126L273.55048 343.23126L273.55048 344.16876Q273.90985 343.5125 274.20673 343.3094Q274.51923 343.09064 274.89423 343.09064Q275.42548 343.09064 275.97235 343.41876L275.61298 344.40314Q275.22235 344.16876 274.84735 344.16876Q274.48798 344.16876 274.20673 344.3875Q273.9411 344.59064 273.83173 344.96564Q273.64423 345.52814 273.64423 346.1844L273.64423 349.45L272.59735 349.45ZM280.67548 348.6844Q280.08173 349.1844 279.53485 349.3875Q279.0036 349.59064 278.3786 349.59064Q277.34735 349.59064 276.80048 349.09064Q276.2536 348.59064 276.2536 347.8094Q276.2536 347.35626 276.45673 346.98126Q276.65985 346.59064 277.0036 346.3719Q277.34735 346.1375 277.76923 346.02814Q278.0661 345.9344 278.70673 345.85626Q279.97235 345.71564 280.58173 345.4969Q280.58173 345.27814 280.58173 345.23126Q280.58173 344.575 280.28485 344.3094Q279.8786 343.96564 279.08173 343.96564Q278.34735 343.96564 277.98798 344.23126Q277.6286 344.48126 277.45673 345.1375L276.42548 344.9969Q276.5661 344.34064 276.89423 343.9344Q277.22235 343.52814 277.83173 343.3094Q278.4411 343.09064 279.23798 343.09064Q280.03485 343.09064 280.53485 343.27814Q281.03485 343.46564 281.26923 343.7469Q281.5036 344.02814 281.59735 344.46564Q281.64423 344.73126 281.64423 345.4344L281.64423 346.84064Q281.64423 348.3094 281.70673 348.7Q281.78485 349.09064 281.98798 349.45L280.8786 349.45Q280.72235 349.1219 280.67548 348.6844ZM280.58173 346.325Q280.0036 346.5594 278.86298 346.73126Q278.20673 346.825 277.9411 346.95Q277.67548 347.0594 277.51923 347.27814Q277.3786 347.4969 277.3786 347.77814Q277.3786 348.2 277.6911 348.48126Q278.01923 348.7625 278.6286 348.7625Q279.23798 348.7625 279.70673 348.4969Q280.1911 348.23126 280.40985 347.7625Q280.58173 347.40314 280.58173 346.71564L280.58173 346.325ZM285.90985 348.5125L286.0661 349.4344Q285.61298 349.52814 285.26923 349.52814Q284.6911 349.52814 284.3786 349.35626Q284.0661 349.16876 283.92548 348.8719Q283.80048 348.575 283.80048 347.6219L283.80048 344.04376L283.03485 344.04376L283.03485 343.23126L283.80048 343.23126L283.80048 341.6844L284.84735 341.0594L284.84735 343.23126L285.90985 343.23126L285.90985 344.04376L284.84735 344.04376L284.84735 347.6844Q284.84735 348.1375 284.89423 348.2625Q284.95673 348.3875 285.08173 348.46564Q285.20673 348.54376 285.4411 348.54376Q285.6286 348.54376 285.90985 348.5125ZM286.61298 342.075L286.61298 340.85626L287.67548 340.85626L287.67548 342.075L286.61298 342.075ZM286.61298 349.45L286.61298 343.23126L287.67548 343.23126L287.67548 349.45L286.61298 349.45ZM289.22235 346.34064Q289.22235 344.60626 290.17548 343.77814Q290.97235 343.09064 292.1286 343.09064Q293.40985 343.09064 294.22235 343.9344Q295.05048 344.7625 295.05048 346.2469Q295.05048 347.45 294.6911 348.1375Q294.33173 348.825 293.6286 349.21564Q292.9411 349.59064 292.1286 349.59064Q290.83173 349.59064 290.01923 348.7625Q289.22235 347.91876 289.22235 346.34064ZM290.30048 346.34064Q290.30048 347.52814 290.8161 348.1219Q291.34735 348.71564 292.1286 348.71564Q292.92548 348.71564 293.4411 348.1219Q293.95673 347.52814 293.95673 346.3094Q293.95673 345.15314 293.42548 344.5594Q292.90985 343.96564 292.1286 343.96564Q291.34735 343.96564 290.8161 344.5594Q290.30048 345.1375 290.30048 346.34064ZM296.61298 349.45L296.61298 343.23126L297.55048 343.23126L297.55048 344.10626Q298.23798 343.09064 299.53485 343.09064Q300.09735 343.09064 300.5661 343.29376Q301.05048 343.4969 301.28485 343.825Q301.51923 344.15314 301.61298 344.59064Q301.65985 344.8875 301.65985 345.6219L301.65985 349.45L300.61298 349.45L300.61298 345.66876Q300.61298 345.0125 300.48798 344.7Q300.36298 344.3875 300.05048 344.2Q299.73798 343.9969 299.3161 343.9969Q298.64423 343.9969 298.14423 344.4344Q297.65985 344.85626 297.65985 346.04376L297.65985 349.45L296.61298 349.45Z" fill-rule="nonzero"/><path fill="#000000" d="M348.16827 349.45L351.46515 340.85626L352.6839 340.85626L356.19952 349.45L354.91827 349.45L353.90265 346.84064L350.32452 346.84064L349.3714 349.45L348.16827 349.45ZM350.65265 345.91876L353.5589 345.91876L352.66827 343.54376Q352.2464 342.46564 352.0589 341.7625Q351.88702 342.59064 351.59015 343.40314L350.65265 345.91876ZM360.0589 349.45L360.0589 348.52814Q359.32452 349.59064 358.07452 349.59064Q357.52765 349.59064 357.04327 349.3875Q356.57452 349.16876 356.34015 348.85626Q356.10577 348.52814 356.01202 348.0594Q355.94952 347.7625 355.94952 347.075L355.94952 343.23126L357.01202 343.23126L357.01202 346.6844Q357.01202 347.4969 357.07452 347.79376Q357.16827 348.2 357.48077 348.45Q357.8089 348.6844 358.29327 348.6844Q358.76202 348.6844 359.16827 348.45Q359.59015 348.2 359.76202 347.77814Q359.94952 347.35626 359.94952 346.5594L359.94952 343.23126L360.9964 343.23126L360.9964 349.45L360.0589 349.45ZM365.27765 348.5125L365.4339 349.4344Q364.98077 349.52814 364.63702 349.52814Q364.0589 349.52814 363.7464 349.35626Q363.4339 349.16876 363.29327 348.8719Q363.16827 348.575 363.16827 347.6219L363.16827 344.04376L362.40265 344.04376L362.40265 343.23126L363.16827 343.23126L363.16827 341.6844L364.21515 341.0594L364.21515 343.23126L365.27765 343.23126L365.27765 344.04376L364.21515 344.04376L364.21515 347.6844Q364.21515 348.1375 364.26202 348.2625Q364.32452 348.3875 364.44952 348.46564Q364.57452 348.54376 364.8089 348.54376Q364.9964 348.54376 365.27765 348.5125ZM365.59015 346.34064Q365.59015 344.60626 366.54327 343.77814Q367.34015 343.09064 368.4964 343.09064Q369.77765 343.09064 370.59015 343.9344Q371.41827 344.7625 371.41827 346.2469Q371.41827 347.45 371.0589 348.1375Q370.69952 348.825 369.9964 349.21564Q369.3089 349.59064 368.4964 349.59064Q367.19952 349.59064 366.38702 348.7625Q365.59015 347.91876 365.59015 346.34064ZM366.66827 346.34064Q366.66827 347.52814 367.1839 348.1219Q367.71515 348.71564 368.4964 348.71564Q369.29327 348.71564 369.8089 348.1219Q370.32452 347.52814 370.32452 346.3094Q370.32452 345.15314 369.79327 344.5594Q369.27765 343.96564 368.4964 343.96564Q367.71515 343.96564 367.1839 344.5594Q366.66827 345.1375 366.66827 346.34064ZM372.98077 349.45L372.98077 343.23126L373.91827 343.23126L373.91827 344.10626Q374.60577 343.09064 375.90265 343.09064Q376.46515 343.09064 376.9339 343.29376Q377.41827 343.4969 377.65265 343.825Q377.88702 344.15314 377.98077 344.59064Q378.02765 344.8875 378.02765 345.6219L378.02765 349.45L376.98077 349.45L376.98077 345.66876Q376.98077 345.0125 376.85577 344.7Q376.73077 344.3875 376.41827 344.2Q376.10577 343.9969 375.6839 343.9969Q375.01202 343.9969 374.51202 344.4344Q374.02765 344.85626 374.02765 346.04376L374.02765 349.45L372.98077 349.45ZM379.59015 346.34064Q379.59015 344.60626 380.54327 343.77814Q381.34015 343.09064 382.4964 343.09064Q383.77765 343.09064 384.59015 343.9344Q385.41827 344.7625 385.41827 346.2469Q385.41827 347.45 385.0589 348.1375Q384.69952 348.825 383.9964 349.21564Q383.3089 349.59064 382.4964 349.59064Q381.19952 349.59064 380.38702 348.7625Q379.59015 347.91876 379.59015 346.34064ZM380.66827 346.34064Q380.66827 347.52814 381.1839 348.1219Q381.71515 348.71564 382.4964 348.71564Q383.29327 348.71564 383.8089 348.1219Q384.32452 347.52814 384.32452 346.3094Q384.32452 345.15314 383.79327 344.5594Q383.27765 343.96564 382.4964 343.96564Q381.71515 343.96564 381.1839 344.5594Q380.66827 345.1375 380.66827 346.34064ZM386.98077 349.45L386.98077 343.23126L387.91827 343.23126L387.91827 344.10626Q388.21515 343.6375 388.69952 343.3719Q389.1839 343.09064 389.8089 343.09064Q390.4964 343.09064 390.9339 343.3719Q391.38702 343.65314 391.5589 344.16876Q392.3089 343.09064 393.48077 343.09064Q394.41827 343.09064 394.90265 343.60626Q395.40265 344.10626 395.40265 345.1844L395.40265 349.45L394.35577 349.45L394.35577 345.52814Q394.35577 344.90314 394.2464 344.6219Q394.15265 344.34064 393.88702 344.16876Q393.6214 343.9969 393.2464 343.9969Q392.59015 343.9969 392.15265 344.4344Q391.73077 344.8719 391.73077 345.84064L391.73077 349.45L390.66827 349.45L390.66827 345.40314Q390.66827 344.7 390.40265 344.35626Q390.15265 343.9969 389.57452 343.9969Q389.1214 343.9969 388.7464 344.23126Q388.3714 344.46564 388.19952 344.91876Q388.02765 345.3719 388.02765 346.21564L388.02765 349.45L386.98077 349.45ZM397.59015 346.34064Q397.59015 344.60626 398.54327 343.77814Q399.34015 343.09064 400.4964 343.09064Q401.77765 343.09064 402.59015 343.9344Q403.41827 344.7625 403.41827 346.2469Q403.41827 347.45 403.0589 348.1375Q402.69952 348.825 401.9964 349.21564Q401.3089 349.59064 400.4964 349.59064Q399.19952 349.59064 398.38702 348.7625Q397.59015 347.91876 397.59015 346.34064ZM398.66827 346.34064Q398.66827 347.52814 399.1839 348.1219Q399.71515 348.71564 400.4964 348.71564Q401.29327 348.71564 401.8089 348.1219Q402.32452 347.52814 402.32452 346.3094Q402.32452 345.15314 401.79327 344.5594Q401.27765 343.96564 400.4964 343.96564Q399.71515 343.96564 399.1839 344.5594Q398.66827 345.1375 398.66827 346.34064ZM409.0589 349.45L409.0589 348.52814Q408.32452 349.59064 407.07452 349.59064Q406.52765 349.59064 406.04327 349.3875Q405.57452 349.16876 405.34015 348.85626Q405.10577 348.52814 405.01202 348.0594Q404.94952 347.7625 404.94952 347.075L404.94952 343.23126L406.01202 343.23126L406.01202 346.6844Q406.01202 347.4969 406.07452 347.79376Q406.16827 348.2 406.48077 348.45Q406.8089 348.6844 407.29327 348.6844Q407.76202 348.6844 408.16827 348.45Q408.59015 348.2 408.76202 347.77814Q408.94952 347.35626 408.94952 346.5594L408.94952 343.23126L409.9964 343.23126L409.9964 349.45L409.0589 349.45ZM411.5589 347.59064L412.59015 347.4344Q412.6839 348.0594 413.07452 348.3875Q413.48077 348.71564 414.21515 348.71564Q414.9339 348.71564 415.27765 348.4344Q415.63702 348.1375 415.63702 347.73126Q415.63702 347.3719 415.32452 347.16876Q415.10577 347.02814 414.2464 346.8094Q413.09015 346.5125 412.63702 346.3094Q412.19952 346.09064 411.96515 345.71564Q411.73077 345.34064 411.73077 344.8719Q411.73077 344.46564 411.91827 344.10626Q412.10577 343.7469 412.4339 343.5125Q412.6839 343.34064 413.10577 343.21564Q413.52765 343.09064 414.02765 343.09064Q414.7464 343.09064 415.29327 343.3094Q415.85577 343.5125 416.1214 343.8719Q416.38702 344.23126 416.48077 344.825L415.44952 344.96564Q415.38702 344.4969 415.04327 344.23126Q414.71515 343.95 414.09015 343.95Q413.3714 343.95 413.0589 344.2Q412.7464 344.4344 412.7464 344.7625Q412.7464 344.96564 412.8714 345.1219Q413.01202 345.29376 413.27765 345.40314Q413.4339 345.46564 414.21515 345.66876Q415.34015 345.98126 415.77765 346.16876Q416.21515 346.35626 416.46515 346.71564Q416.71515 347.075 416.71515 347.6219Q416.71515 348.15314 416.40265 348.6219Q416.10577 349.075 415.52765 349.34064Q414.94952 349.59064 414.21515 349.59064Q412.9964 349.59064 412.35577 349.09064Q411.73077 348.575 411.5589 347.59064Z" fill-rule="nonzero"/><path fill="#000000" d="M479.5986 346.6844L480.6611 346.59064Q480.73923 347.2469 481.02048 347.65314Q481.30173 348.0594 481.87985 348.325Q482.4736 348.575 483.20798 348.575Q483.8486 348.575 484.3486 348.3875Q484.8486 348.1844 485.08298 347.85626Q485.33298 347.5125 485.33298 347.1219Q485.33298 346.71564 485.0986 346.41876Q484.86423 346.10626 484.33298 345.90314Q483.9736 345.7625 482.7861 345.48126Q481.61423 345.2 481.14548 344.95Q480.52048 344.6219 480.2236 344.15314Q479.92673 343.66876 479.92673 343.075Q479.92673 342.4344 480.2861 341.8719Q480.6611 341.29376 481.36423 341.0125Q482.08298 340.71564 482.94235 340.71564Q483.89548 340.71564 484.62985 341.02814Q485.36423 341.325 485.75485 341.9344Q486.14548 342.52814 486.17673 343.27814L485.08298 343.35626Q484.98923 342.54376 484.4736 342.1375Q483.9736 341.71564 482.98923 341.71564Q481.95798 341.71564 481.48923 342.09064Q481.02048 342.46564 481.02048 342.9969Q481.02048 343.46564 481.3486 343.7625Q481.67673 344.0594 483.05173 344.3719Q484.44235 344.6844 484.95798 344.91876Q485.70798 345.27814 486.06735 345.8094Q486.42673 346.325 486.42673 347.02814Q486.42673 347.71564 486.0361 348.325Q485.64548 348.91876 484.9111 349.2625Q484.17673 349.59064 483.25485 349.59064Q482.08298 349.59064 481.2861 349.2625Q480.50485 348.91876 480.05173 348.23126Q479.61423 347.54376 479.5986 346.6844ZM491.92673 349.45L491.92673 348.52814Q491.19235 349.59064 489.94235 349.59064Q489.39548 349.59064 488.9111 349.3875Q488.44235 349.16876 488.20798 348.85626Q487.9736 348.52814 487.87985 348.0594Q487.81735 347.7625 487.81735 347.075L487.81735 343.23126L488.87985 343.23126L488.87985 346.6844Q488.87985 347.4969 488.94235 347.79376Q489.0361 348.2 489.3486 348.45Q489.67673 348.6844 490.1611 348.6844Q490.62985 348.6844 491.0361 348.45Q491.45798 348.2 491.62985 347.77814Q491.81735 347.35626 491.81735 346.5594L491.81735 343.23126L492.86423 343.23126L492.86423 349.45L491.92673 349.45ZM495.81735 349.45L494.83298 349.45L494.83298 340.85626L495.89548 340.85626L495.89548 343.91876Q496.56735 343.09064 497.5986 343.09064Q498.17673 343.09064 498.67673 343.325Q499.19235 343.54376 499.52048 343.96564Q499.86423 344.3875 500.05173 344.98126Q500.23923 345.575 500.23923 346.2469Q500.23923 347.84064 499.44235 348.71564Q498.64548 349.59064 497.55173 349.59064Q496.44235 349.59064 495.81735 348.66876L495.81735 349.45ZM495.80173 346.29376Q495.80173 347.40314 496.11423 347.90314Q496.61423 348.71564 497.45798 348.71564Q498.14548 348.71564 498.64548 348.1219Q499.1611 347.52814 499.1611 346.325Q499.1611 345.10626 498.67673 344.52814Q498.19235 343.95 497.50485 343.95Q496.81735 343.95 496.30173 344.5594Q495.80173 345.15314 495.80173 346.29376ZM504.14548 348.5125L504.30173 349.4344Q503.8486 349.52814 503.50485 349.52814Q502.92673 349.52814 502.61423 349.35626Q502.30173 349.16876 502.1611 348.8719Q502.0361 348.575 502.0361 347.6219L502.0361 344.04376L501.27048 344.04376L501.27048 343.23126L502.0361 343.23126L502.0361 341.6844L503.08298 341.0594L503.08298 343.23126L504.14548 343.23126L504.14548 344.04376L503.08298 344.04376L503.08298 347.6844Q503.08298 348.1375 503.12985 348.2625Q503.19235 348.3875 503.31735 348.46564Q503.44235 348.54376 503.67673 348.54376Q503.86423 348.54376 504.14548 348.5125ZM504.45798 346.34064Q504.45798 344.60626 505.4111 343.77814Q506.20798 343.09064 507.36423 343.09064Q508.64548 343.09064 509.45798 343.9344Q510.2861 344.7625 510.2861 346.2469Q510.2861 347.45 509.92673 348.1375Q509.56735 348.825 508.86423 349.21564Q508.17673 349.59064 507.36423 349.59064Q506.06735 349.59064 505.25485 348.7625Q504.45798 347.91876 504.45798 346.34064ZM505.5361 346.34064Q505.5361 347.52814 506.05173 348.1219Q506.58298 348.71564 507.36423 348.71564Q508.1611 348.71564 508.67673 348.1219Q509.19235 347.52814 509.19235 346.3094Q509.19235 345.15314 508.6611 344.5594Q508.14548 343.96564 507.36423 343.96564Q506.58298 343.96564 506.05173 344.5594Q505.5361 345.1375 505.5361 346.34064ZM514.1455 348.5125L514.30176 349.4344Q513.84863 349.52814 513.5049 349.52814Q512.92676 349.52814 512.61426 349.35626Q512.30176 349.16876 512.16113 348.8719Q512.03613 348.575 512.03613 347.6219L512.03613 344.04376L511.27048 344.04376L511.27048 343.23126L512.03613 343.23126L512.03613 341.6844L513.083 341.0594L513.083 343.23126L514.1455 343.23126L514.1455 344.04376L513.083 344.04376L513.083 347.6844Q513.083 348.1375 513.1299 348.2625Q513.1924 348.3875 513.3174 348.46564Q513.4424 348.54376 513.67676 348.54376Q513.86426 348.54376 514.1455 348.5125ZM518.91113 348.6844Q518.3174 349.1844 517.7705 349.3875Q517.23926 349.59064 516.61426 349.59064Q515.583 349.59064 515.03613 349.09064Q514.48926 348.59064 514.48926 347.8094Q514.48926 347.35626 514.6924 346.98126Q514.8955 346.59064 515.23926 346.3719Q515.583 346.1375 516.0049 346.02814Q516.30176 345.9344 516.9424 345.85626Q518.208 345.71564 518.8174 345.4969Q518.8174 345.27814 518.8174 345.23126Q518.8174 344.575 518.5205 344.3094Q518.11426 343.96564 517.3174 343.96564Q516.583 343.96564 516.22363 344.23126Q515.86426 344.48126 515.6924 345.1375L514.66113 344.9969Q514.80176 344.34064 515.1299 343.9344Q515.458 343.52814 516.0674 343.3094Q516.67676 343.09064 517.47363 343.09064Q518.2705 343.09064 518.7705 343.27814Q519.2705 343.46564 519.5049 343.7469Q519.73926 344.02814 519.833 344.46564Q519.8799 344.73126 519.8799 345.4344L519.8799 346.84064Q519.8799 348.3094 519.9424 348.7Q520.0205 349.09064 520.22363 349.45L519.11426 349.45Q518.958 349.1219 518.91113 348.6844ZM518.8174 346.325Q518.23926 346.5594 517.09863 346.73126Q516.4424 346.825 516.17676 346.95Q515.91113 347.0594 515.7549 347.27814Q515.61426 347.4969 515.61426 347.77814Q515.61426 348.2 515.92676 348.48126Q516.2549 348.7625 516.86426 348.7625Q517.47363 348.7625 517.9424 348.4969Q518.42676 348.23126 518.6455 347.7625Q518.8174 347.40314 518.8174 346.71564L518.8174 346.325ZM521.8174 349.45L521.8174 340.85626L522.8799 340.85626L522.8799 349.45L521.8174 349.45Z" fill-rule="nonzero"/></svg>